<svg class="img-fluid" width="47" height="16" viewBox="0 0 47 16" fill="none" xmlns="http://www.w3.org/2000/svg"><path fill-rule="evenodd" clip-rule="evenodd" d="M0.500003 8C0.500003 8.23572 0.597827 8.46178 0.771957 8.62845C0.946086 8.79513 1.18226 8.88877 1.42852 8.88877L43.3284 8.88876L37.4843 14.4809C37.398 14.5635 37.3295 14.6616 37.2828 14.7696C37.2361 14.8775 37.212 14.9933 37.212 15.1101C37.212 15.227 37.2361 15.3427 37.2828 15.4507C37.3295 15.5586 37.398 15.6567 37.4843 15.7394C37.5707 15.822 37.6732 15.8875 37.786 15.9323C37.8988 15.977 38.0196 16 38.1417 16C38.2638 16 38.3847 15.977 38.4975 15.9323C38.6103 15.8875 38.7128 15.822 38.7991 15.7394L46.2272 8.62924C46.3137 8.54669 46.3823 8.44861 46.4291 8.34063C46.4759 8.23266 46.5 8.1169 46.5 8C46.5 7.8831 46.4759 7.76734 46.4291 7.65937C46.3823 7.55139 46.3137 7.45331 46.2272 7.37075L38.7991 0.26064C38.7128 0.178006 38.6103 0.112457 38.4975 0.0677364C38.3847 0.0230157 38.2638 -1.18732e-06 38.1417 -1.17665e-06C38.0196 -1.16597e-06 37.8987 0.0230158 37.786 0.0677364C37.6732 0.112457 37.5707 0.178006 37.4843 0.26064C37.398 0.343274 37.3295 0.441374 37.2828 0.54934C37.2361 0.657307 37.212 0.773023 37.212 0.889885C37.212 1.00675 37.2361 1.12246 37.2828 1.23043C37.3295 1.3384 37.398 1.4365 37.4843 1.51913L43.3284 7.11123L1.42852 7.11124C1.18226 7.11124 0.946086 7.20487 0.771957 7.37155C0.597827 7.53822 0.500003 7.76429 0.500003 8Z" fill="#101828"></path></svg>