<svg id="Layer_1" data-name="Layer 1" xmlns="http://www.w3.org/2000/svg" viewBox="0 0 1000 1000"><defs><style>.cls-1{fill:#13181a;}.cls-2{fill:#feeb00;}</style></defs><path class="cls-1" d="M319.84,537.45a34.34,34.34,0,0,1-12.46-13.28,42,42,0,0,1,0-37.93,33.63,33.63,0,0,1,30.4-18,39.51,39.51,0,0,1,13.76,2.26,26.29,26.29,0,0,1,9.93,6.24,27.93,27.93,0,0,1,5.89,8.14,42,42,0,0,1,3.28,10.88l-14.78,4.11q-1.78-9.3-6.3-13.48a16.47,16.47,0,0,0-11.64-4.18,16.26,16.26,0,0,0-13.15,6.37q-5.2,6.36-5.2,16.77,0,10.14,5.2,16.57a16.35,16.35,0,0,0,13.28,6.44,16.66,16.66,0,0,0,11.3-3.84q4.45-3.82,6.64-13.14l14.52,4.38q-2.34,11.5-9.31,18.07-9.18,8.49-23.55,8.49a33.45,33.45,0,0,1-17.81-4.86"/><path class="cls-1" d="M525.31,537.45a34.34,34.34,0,0,1-12.46-13.28,42,42,0,0,1,0-37.93,33.63,33.63,0,0,1,30.4-18A39.51,39.51,0,0,1,557,470.49a26.29,26.29,0,0,1,9.93,6.24,27.93,27.93,0,0,1,5.89,8.14,42,42,0,0,1,3.28,10.88l-14.79,4.11q-1.77-9.3-6.29-13.48a16.47,16.47,0,0,0-11.64-4.18,16.26,16.26,0,0,0-13.15,6.37q-5.21,6.36-5.2,16.77,0,10.14,5.2,16.57a16.35,16.35,0,0,0,13.28,6.44,16.68,16.68,0,0,0,11.3-3.84q4.45-3.82,6.64-13.14L576,515.75q-2.34,11.5-9.31,18.07-9.18,8.49-23.56,8.49a33.44,33.44,0,0,1-17.8-4.86"/><path class="cls-1" d="M373.41,442.9h16.3v37a22.37,22.37,0,0,1,9.31-8.42,27.07,27.07,0,0,1,11.5-2.53,27.63,27.63,0,0,1,9.86,1.71,19.16,19.16,0,0,1,7.67,5.27,18.46,18.46,0,0,1,4.72,8.63,57.28,57.28,0,0,1,1,12.05v43.13H417.64V498.77q0-8.76-2.87-12.33c-2-2.27-5-3.42-9-3.42a14.55,14.55,0,0,0-11.5,5.21c-3,3.46-4.52,7.85-4.52,13.14v38.34h-16.3Z"/><path class="cls-1" d="M453.34,537.52a33,33,0,0,1-12.46-13.28,40.34,40.34,0,0,1-4.45-19,41.46,41.46,0,0,1,4.24-19A32.16,32.16,0,0,1,452.73,473a33.52,33.52,0,0,1,17.93-4.8q10.14,0,17.39,4.46a28.47,28.47,0,0,1,11,12.38,42.57,42.57,0,0,1,3.76,18.35c0,1.1-.09,2.93-.27,5.48H454q.14,8.63,5.2,14.1a16.44,16.44,0,0,0,12.6,5.48,17.8,17.8,0,0,0,10.2-2.81q4.17-2.8,6.64-9.65l13.83,6.85a29.59,29.59,0,0,1-9.45,12.6q-8.36,6.84-21.36,6.84a35,35,0,0,1-18.28-4.79M486,496.72q-.56-7.68-4.8-11.5a15.12,15.12,0,0,0-10.54-3.84,15.55,15.55,0,0,0-11,4q-4.38,4-5.48,11.16Z"/><polygon class="cls-1" points="581.6 442.9 597.9 442.9 597.9 498.77 621.72 470.7 641.03 470.7 614.05 501.37 642.26 539.71 623.09 539.71 597.9 504.11 597.9 539.71 581.6 539.71 581.6 442.9"/><path class="cls-1" d="M648,446.12a11.69,11.69,0,0,1,14.79-.07,9.85,9.85,0,0,1-.07,13.56,11.05,11.05,0,0,1-14.65-.07,9.33,9.33,0,0,1-.07-13.42m-.89,24.58h16.29v69H647.07Z"/><path class="cls-1" d="M742.3,538.27a9.83,9.83,0,0,1,0-13.9,10.12,10.12,0,0,1,14.65,14,10.66,10.66,0,0,1-14.65-.07"/><path class="cls-1" d="M762.88,470.7H779v8.21q7.26-10.68,21.36-10.68a27.55,27.55,0,0,1,16.29,4.93,31.83,31.83,0,0,1,10.75,13.36,45.61,45.61,0,0,1,3.77,18.82,43.64,43.64,0,0,1-3.9,18.56A32.21,32.21,0,0,1,816,537.31a30.64,30.64,0,0,1-27.8,3,21.43,21.43,0,0,1-9-6.57v30.8h-16.3Zm20.75,51.35a15.41,15.41,0,0,0,12.8,6,15.1,15.1,0,0,0,13.14-6.64q4.66-6.63,4.66-16.36t-4.58-16.36a14.84,14.84,0,0,0-12.95-6.64,15.38,15.38,0,0,0-13,6.43q-4.79,6.44-4.79,17.11,0,10.42,4.73,16.44"/><polygon class="cls-1" points="835.89 442.9 852.19 442.9 852.19 498.77 876.01 470.7 895.32 470.7 868.34 501.37 896.55 539.71 877.38 539.71 852.19 504.11 852.19 539.71 835.89 539.71 835.89 442.9"/><path class="cls-1" d="M251,579H113.83a10.39,10.39,0,0,1-10.38-10.39V431.41A10.39,10.39,0,0,1,113.83,421H251a10.39,10.39,0,0,1,10.39,10.39V568.59A10.39,10.39,0,0,1,251,579"/><path class="cls-1" d="M686.73,483.6v56.11H670.56V470.6H714.1a41.71,41.71,0,0,1,8.78.83,14.84,14.84,0,0,1,6.35,2.91,12.63,12.63,0,0,1,3.88,5.8,29.33,29.33,0,0,1,1.31,9.54v50H718.25v-46.3a14,14,0,0,0-.77-5.18,7.21,7.21,0,0,0-2-2.91,6,6,0,0,0-2.76-1.31,18.18,18.18,0,0,0-3.18-.28Z"/><path class="cls-2" d="M182.42,445.19a54.81,54.81,0,0,0-38.85,93.47,136.91,136.91,0,0,0,22.87-20.31c-3.72-1.5-7.5-2.82-11.85-5,1.3-1.9,2.17-4.44,4.14-5.79s10.34,2.24,12.61,2.56a1.14,1.14,0,0,0,.45,0c.4-.11.74-1,1-1.28.35-.52.69-1,1-1.56.69-1,1.4-2,2.11-3,.41-.57,4.23-6.19,4.16-6.23-9.44-5.08-19.05-9.58-29.23-14.65,2-2.6,3.35-4.1,6.32-7.64,10.64,3.17,21,7.11,32.08,10.06,5.46-5.75,11.32-14.61,19.58-19.59a1.29,1.29,0,0,1,1.51-.22,1.52,1.52,0,0,1,.65,1.28c0,9.82-7.9,13.95-15.26,24.74,1.94,4.08,5.9,8.68,9,13.39,2.92,4.38,6.1,8.62,9.6,13.55-1.66,2.63-4,5.86-5.51,8.47-7.49-7.87-14.64-15.92-22.14-23.79l-.86-.85c-2.58,4.4-5.4,7.76-7.39,11.79-.09.12,6.21,15,6.09,15.65-.08.45-1.39.91-1.85,1.16l-1.67.89c-.78.41-1.18.81-2,.25-2.25-1.47-8.53-9.56-8.94-9-5.13,6.51-11.52,15-18.67,21.62a54.81,54.81,0,1,0,31.12-99.93Z"/></svg>