<svg width="94" height="94" viewBox="0 0 94 94" fill="none" xmlns="http://www.w3.org/2000/svg"><g clip-path="url(#clip0_401_79809)"><path d="M93.5727 50.6776C93.4676 51.4296 93.3415 52.1816 93.1944 52.9336C93.1944 53.0025 93.1944 53.0777 93.1502 53.1466C92.3514 57.266 91.027 61.2672 89.2091 65.0533C87.7144 68.1859 85.8993 71.1573 83.7925 73.9206C82.4801 75.6485 81.0585 77.2916 79.5361 78.84C76.8923 81.5472 73.9572 83.9576 70.7837 86.0278L69.7685 86.6545C69.428 86.8676 69.0874 87.0744 68.7406 87.2812L67.7128 87.8765C67.0128 88.265 66.3003 88.641 65.5814 88.9982C65.222 89.18 64.8563 89.3554 64.4968 89.5184C64.1374 89.6813 63.9356 89.7816 63.6393 89.9132L63.2105 90.1012L62.2961 90.4897L62.2142 90.5273C53.7761 94.0375 44.4586 94.8948 35.5155 92.9838C35.4273 92.9838 35.339 92.9462 35.257 92.9274C31.1868 91.9983 27.2943 90.4218 23.7301 88.2588L23.0995 87.8577L22.8473 87.6948C21.8573 87.0681 20.9114 86.3474 19.9844 85.6205C18.5783 84.5238 17.2288 83.3457 15.892 82.1488C15.0849 81.4406 14.2966 80.72 13.4895 80.0056C13.6345 80.1309 13.7796 80.2562 13.9309 80.3753L14.675 81.002L15.3056 81.497L15.9361 81.9733L16.1379 82.1112C16.283 82.2177 16.4343 82.3305 16.5856 82.4308C18.6516 83.859 20.8546 85.0807 23.1625 86.078C27.3257 87.869 31.761 88.9556 36.2848 89.2928L37.4766 89.368H38.2712C45.1341 89.5252 51.9471 88.1727 58.2226 85.4074C58.7271 85.1881 59.2252 84.9562 59.7234 84.7181L60.354 84.4236L60.4675 84.3672H60.5116C60.7071 84.2732 60.8963 84.1792 61.0917 84.0726L61.1926 84.0225C61.2176 84.0138 61.2411 84.0011 61.262 83.9849H61.325L61.8547 83.7029L62.5294 83.3394L62.6556 83.2642L63.4375 82.8193L64.0681 82.4182L64.5473 82.13L64.5914 82.0986C64.7112 82.0297 64.8311 81.9482 64.9509 81.873L65.1905 81.7226L65.2535 81.685L65.3103 81.6412C65.3369 81.6267 65.3622 81.6099 65.386 81.591L65.5247 81.5033C65.7076 81.3905 65.8841 81.2714 66.067 81.1461L66.1931 81.0584L66.2562 81.0208L66.3633 80.9456C66.8111 80.6385 67.2525 80.3189 67.6939 80.0056L68.2929 79.5606L68.4001 79.4854C68.4001 79.4854 68.4316 79.4854 68.4379 79.4478C68.583 79.3476 68.7217 79.2348 68.8667 79.122L69.0559 78.9716H69.0937L69.7622 78.4389L70.4369 77.8874C70.563 77.7746 70.6828 77.6681 70.8152 77.5616C71.7485 76.7594 72.6502 75.9322 73.5267 75.0549C77.4486 71.1717 80.749 66.7146 83.3133 61.8385L83.4583 61.5565C86.3647 55.9332 88.118 49.792 88.6164 43.4897C88.6164 43.1764 88.6668 42.863 88.6858 42.5372C88.7047 42.2113 88.7173 41.9105 88.7299 41.5847C88.7299 41.3904 88.7299 41.1961 88.7299 41.0081C88.7299 40.8201 88.7299 40.6133 88.7299 40.4253C88.7299 39.9867 88.7299 39.5543 88.7299 39.1219C88.7299 38.9777 88.7299 38.8336 88.7299 38.6957C88.7299 38.5579 88.7299 38.3197 88.7299 38.1255C88.7299 37.4988 88.6668 36.8408 88.6164 36.2016C88.6164 35.9697 88.5723 35.7441 88.547 35.5123C88.5218 35.2804 88.5092 35.0736 88.4777 34.8856C88.4777 34.8167 88.4777 34.7477 88.4777 34.6725L88.402 34.0897C88.3642 33.8328 88.3326 33.5759 88.2948 33.3189C88.1813 32.5983 88.0489 31.8839 87.8975 31.1695C86.5455 24.6271 83.562 18.527 79.2208 13.4285C79.0632 13.2405 78.8992 13.0525 78.729 12.8708C78.5587 12.6891 78.338 12.4384 78.1362 12.2441C77.9344 12.0499 77.7453 11.8243 77.5056 11.6175L76.8751 10.9908L76.8183 10.9407C76.6544 10.7777 76.4841 10.6211 76.3139 10.4644C76.1436 10.3077 75.9607 10.1323 75.7779 9.98186C75.7521 9.95315 75.7248 9.92595 75.6959 9.90039C76.1184 10.2701 76.5409 10.6399 76.957 11.0033C79.0758 12.8395 81.2323 14.6693 83.1619 16.6997C86.3997 20.1133 88.9775 24.0899 90.7667 28.4309C93.6539 35.4723 94.6218 43.1458 93.5727 50.6776Z" fill="url(#paint0_linear_401_79809)"></path><path d="M88.8117 39.0664C88.8117 38.9223 88.8117 38.7781 88.8117 38.6403C88.8117 38.5024 88.8117 38.2643 88.8117 38.07C88.8117 37.4433 88.7486 36.8167 88.6982 36.1461C88.6982 35.9143 88.6541 35.6887 88.6288 35.4568C88.6036 35.2249 88.5847 35.0181 88.5595 34.8301C88.5595 34.7612 88.5595 34.6923 88.5595 34.6171L88.4838 34.0343C88.446 33.7773 88.4145 33.5204 88.3766 33.2635C88.2631 32.5365 88.1307 31.8159 87.9793 31.1077C86.6541 24.5571 83.665 18.4521 79.2963 13.3731C79.145 13.1851 78.981 12.9971 78.8108 12.8153C78.6405 12.6336 78.4198 12.3767 78.218 12.1887C78.0163 12.0007 77.8208 11.7688 77.5875 11.562C77.3541 11.3552 77.1839 11.1484 76.9569 10.9353C76.9434 10.9156 76.9263 10.8986 76.9064 10.8852C76.7362 10.7223 76.5722 10.5593 76.3957 10.4089C76.2191 10.2585 76.0489 10.0768 75.866 9.9264C69.7111 4.42619 61.9459 1.02884 53.7075 0.231867C52.5347 0.106533 51.3681 0.0376 50.2015 0H49.0791H48.1522C41.8845 0.180126 35.719 1.62348 30.0294 4.24253C28.7683 4.81489 27.5239 5.44156 26.2964 6.12253C25.6658 6.4672 25.0857 6.81813 24.4929 7.1816C23.9002 7.54507 23.3138 7.92107 22.7273 8.3096C22.1409 8.69813 21.5734 9.10547 21.0059 9.5128C19.5889 10.5515 18.2252 11.66 16.9197 12.8341C16.3963 13.2979 15.8793 13.7867 15.3748 14.2755C8.09796 21.3001 3.08511 30.3148 0.972453 40.1756C-1.6066 52.5585 0.972453 64.2709 7.27822 73.1633C8.99922 75.603 11.0059 77.8308 13.2561 79.7997L13.4579 79.9815L13.8993 80.3512L14.6433 80.9779L15.2739 81.4729L15.9045 81.9492L16.0937 82.0871L16.554 82.4067C18.6151 83.8408 20.8139 85.0688 23.1183 86.0727C26.9259 87.7237 30.9671 88.7806 35.0992 89.206C35.8875 89.2875 36.6694 89.3501 37.4513 89.3815H38.2521C38.6998 89.3815 39.1538 89.3815 39.6079 89.3815C46.5729 89.343 53.4398 87.7451 59.698 84.7065L60.3286 84.412L60.4421 84.3556H60.4862L60.6817 84.2553L61.079 84.0485L61.1862 83.9984L61.2492 83.9608H61.3123L61.5961 83.8104C61.6806 83.7714 61.7627 83.7275 61.842 83.6788C62.069 83.5597 62.296 83.4407 62.5167 83.3153L62.6428 83.2401L63.4247 82.7952L64.0931 82.3941L64.5661 82.1059L64.6102 82.0745C64.7363 82.0056 64.8498 81.9241 64.9696 81.8489L65.2093 81.6985L65.266 81.6609L65.4047 81.5732L65.5371 81.4792L66.0794 81.1283L66.2686 80.9967L66.3758 80.9215C66.8235 80.6207 67.2649 80.2948 67.7063 79.9815L68.3369 79.5365L68.4378 79.4613C68.4378 79.4613 68.4693 79.4613 68.4819 79.4237C68.6207 79.3235 68.7594 79.2107 68.9044 79.0979C68.9744 79.0491 69.0417 78.9968 69.1062 78.9412H69.144L69.8125 78.4085L70.3043 78.0137L70.607 77.7568L70.8718 77.5375C71.7546 76.7855 72.6122 76.0084 73.4446 75.1937C74.9629 73.7111 76.3905 72.1396 77.7199 70.4875C78.1676 69.9423 78.5964 69.3783 79.0189 68.808L79.6494 67.9495L80.1728 67.1912C80.3998 66.8591 80.6205 66.5207 80.8412 66.1823C81.2322 65.5556 81.6105 64.9791 81.97 64.3712C82.3357 63.7445 82.6825 63.1179 83.0167 62.4912L83.3698 61.8144L83.5149 61.5324C84.6234 59.351 85.5677 57.0909 86.3399 54.7707L86.4155 54.5639C86.9864 52.8309 87.458 51.0671 87.828 49.2811C88.2321 47.3621 88.5143 45.4198 88.673 43.4656C88.673 43.146 88.7234 42.8389 88.7423 42.5068C88.7613 42.1747 88.7739 41.8801 88.7865 41.5605C88.7865 41.3642 88.7865 41.1699 88.7865 40.9777C88.7865 40.7835 88.7865 40.5892 88.7865 40.3949C88.8243 39.9312 88.8243 39.48 88.8117 39.0664Z" fill="#EE9118"></path><path opacity="0.5" d="M38.7623 87.1087C17.3858 84.8778 1.80426 66.3535 6.60295 43.3799C11.4016 20.4063 33.4844 3.65552 55.914 5.99299C74.7493 7.96072 85.7592 23.7339 86.5979 41.1678C87.5311 20.4314 73.4882 3.09152 52.635 0.91072C29.4109 -1.51448 6.5525 15.8003 1.60247 39.5948C-3.34755 63.3894 11.4269 84.6396 34.651 87.0648C36.7453 87.2827 38.8532 87.3434 40.9567 87.2466C40.2064 87.209 39.4875 87.1588 38.7623 87.1087Z" fill="#94512A"></path><path d="M85.5319 42.1251C85.4432 44.4743 85.1542 46.8118 84.668 49.1124C84.1965 51.309 83.5643 53.4684 82.7763 55.5734C81.0669 60.1292 78.6522 64.3917 75.6192 68.207C73.5452 70.8299 71.1991 73.2286 68.6198 75.3635C67.9451 75.9212 67.2641 76.4539 66.5642 76.9678C59.1284 82.6035 50.0614 85.7045 40.7105 85.81C39.3562 85.8077 38.0029 85.7366 36.6559 85.597C35.1134 85.4337 33.5824 85.1763 32.0716 84.8262C30.0952 84.3665 28.1626 83.7375 26.2956 82.9462C20.7396 80.6076 15.921 76.8234 12.3472 71.992C12.3157 71.9544 12.2905 71.9106 12.2589 71.8667C9.94832 68.7229 8.18746 65.2146 7.05037 61.4891C7.05037 61.4891 7.05037 61.4327 7.05037 61.4014C6.71043 60.3198 6.4263 59.2217 6.19909 58.1114C5.10862 52.7315 5.13652 47.1868 6.28106 41.818V41.7115C8.51042 31.4131 14.1715 22.1638 22.3482 15.4604C30.4826 8.72377 40.3826 5.01391 50.2322 5.01391C51.5845 5.01581 52.9357 5.08693 54.2805 5.22697C60.0705 5.79543 65.628 7.78287 70.4548 11.0111C72.757 12.5762 74.8541 14.4203 76.6975 16.5007L76.7354 16.5446C77.3029 17.1712 77.8452 17.848 78.3686 18.5374L78.6649 18.9322C81.6616 23.028 83.7349 27.7174 84.7437 32.6812C85.3807 35.7532 85.639 38.8908 85.513 42.0248C85.5161 42.0498 85.5161 42.0751 85.513 42.1L85.5319 42.1251ZM58.8522 2.05604C57.4812 1.77502 56.0962 1.56585 54.703 1.42938C54.617 1.42289 54.5305 1.42289 54.4445 1.42938C53.0446 1.29151 51.6447 1.21631 50.2448 1.21631C28.3702 1.21631 7.76292 17.823 2.72461 40.2326C2.72461 40.3516 2.66786 40.4644 2.64264 40.5835C2.61742 40.7026 2.59219 40.8342 2.56066 40.9595C-0.0373111 53.2672 2.6048 64.4658 8.9421 72.8004C11.5866 76.2673 14.8454 79.2255 18.5584 81.5299C20.3956 82.6773 22.328 83.6668 24.3345 84.4878C25.7069 85.051 27.1088 85.5405 28.5341 85.9542C31.0671 86.6841 33.6607 87.1874 36.2839 87.4582C37.7648 87.6137 39.2529 87.6911 40.7421 87.69C51.2485 87.6625 61.415 83.9873 69.4837 77.2999C72.9366 74.4736 75.9815 71.1882 78.5325 67.5364C81.215 63.6979 83.3518 59.5098 84.8824 55.0908C85.6125 52.9769 86.2064 50.8189 86.6606 48.6299C87.17 46.2153 87.5009 43.7668 87.6506 41.3042C88.8109 21.7396 77.6497 5.89751 58.8522 2.05604ZM12.3913 71.9983L12.2968 71.873C9.99176 68.7267 8.23334 65.219 7.09451 61.4954C7.15757 61.721 7.22062 61.9466 7.28999 62.1659C7.29669 62.2004 7.30727 62.234 7.32151 62.2662C7.39088 62.4855 7.46024 62.7111 7.53591 62.8928C7.61158 63.0746 7.68725 63.3691 7.77553 63.601C7.86381 63.8328 8.00884 64.2276 8.13496 64.566C8.1854 64.7102 8.24216 64.848 8.29891 64.9859C8.29891 65.0235 8.33044 65.0674 8.34935 65.1112C8.51961 65.5248 8.69617 65.9384 8.87904 66.3646L8.91687 66.4335C9.02407 66.6716 9.13758 66.916 9.25738 67.1479C9.37719 67.3798 9.47178 67.5866 9.57898 67.7746C9.80599 68.207 10.0393 68.6456 10.2852 69.0655C10.3546 69.2034 10.4303 69.3287 10.5122 69.4603C10.5942 69.5919 10.7077 69.7987 10.8149 69.9679C10.9221 70.1371 11.0608 70.369 11.1869 70.5946C11.5022 71.0896 11.8175 71.5722 12.1643 72.0484C12.5112 72.5247 12.7571 72.8506 13.0661 73.2454L13.3687 73.6339C13.7471 74.0976 14.1317 74.5488 14.529 75L14.8191 75.3134C14.9452 75.4575 15.0839 75.6079 15.2226 75.752C15.3614 75.8962 15.5947 76.1343 15.7839 76.3286L16.2946 76.8362L16.4144 76.949L16.7991 77.3124C17.0513 77.5506 17.3035 77.7762 17.5621 78.0018L18.1233 78.478C18.344 78.6723 18.571 78.854 18.7917 79.0295L19.4223 79.5308C19.8258 79.8379 20.2294 80.1575 20.6456 80.4207C20.8915 80.5711 21.1438 80.7215 21.3897 80.8594L21.9761 80.7215C18.2376 78.4651 14.9811 75.5013 12.3913 71.9983ZM12.3913 71.9983L12.2968 71.873C9.99176 68.7267 8.23334 65.219 7.09451 61.4954C7.15757 61.721 7.22062 61.9466 7.28999 62.1659C7.29669 62.2004 7.30727 62.234 7.32151 62.2662C7.39088 62.4855 7.46024 62.7111 7.53591 62.8928C7.61158 63.0746 7.68725 63.3691 7.77553 63.601C7.86381 63.8328 8.00884 64.2276 8.13496 64.566C8.1854 64.7102 8.24216 64.848 8.29891 64.9859C8.29891 65.0235 8.33044 65.0674 8.34935 65.1112C8.51961 65.5248 8.69617 65.9384 8.87904 66.3646L8.91687 66.4335C9.02407 66.6716 9.13758 66.916 9.25738 67.1479C9.37719 67.3798 9.47178 67.5866 9.57898 67.7746C9.80599 68.207 10.0393 68.6456 10.2852 69.0655C10.3546 69.2034 10.4303 69.3287 10.5122 69.4603C10.5942 69.5919 10.7077 69.7987 10.8149 69.9679C10.9221 70.1371 11.0608 70.369 11.1869 70.5946C11.5022 71.0896 11.8175 71.5722 12.1643 72.0484C12.5112 72.5247 12.7571 72.8506 13.0661 73.2454L13.3687 73.6339C13.7471 74.0976 14.1317 74.5488 14.529 75L14.8191 75.3134C14.9452 75.4575 15.0839 75.6079 15.2226 75.752C15.3614 75.8962 15.5947 76.1343 15.7839 76.3286L16.2946 76.8362L16.4144 76.949L16.7991 77.3124C17.0513 77.5506 17.3035 77.7762 17.5621 78.0018L18.1233 78.478C18.344 78.6723 18.571 78.854 18.7917 79.0295L19.4223 79.5308C19.8258 79.8379 20.2294 80.1575 20.6456 80.4207C20.8915 80.5711 21.1438 80.7215 21.3897 80.8594L21.9761 80.7215C18.2376 78.4651 14.9811 75.5013 12.3913 71.9983Z" fill="#E99855"></path><path d="M74.2706 68.526C72.3288 70.8797 70.1668 73.0452 67.8135 74.9932C67.0274 75.6449 66.2224 76.2716 65.3984 76.8732C57.9491 82.4102 48.9222 85.4517 39.6205 85.5588C38.2515 85.5567 36.8835 85.4856 35.5217 85.3457C34.3699 85.2288 33.2348 85.0575 32.1166 84.8319C28.3497 84.1056 24.7283 82.7698 21.3968 80.8776L20.6527 80.4389C17.0982 78.2939 13.9728 75.515 11.4337 72.2421C11.2382 71.9915 11.0491 71.7408 10.8599 71.4839C7.8248 67.3385 5.72555 62.591 4.70546 57.5656C3.61167 52.1872 3.62883 46.6439 4.75591 41.2723L4.81266 40.9903C7.04599 30.5708 12.7541 21.206 21.0122 14.4133C28.7178 8.0464 38.0188 4.38667 47.3639 3.92293H48.272H49.0791H50.1006C51.1663 3.92293 52.2383 4.01693 53.2977 4.12347C62.1584 4.94984 70.3603 9.12973 76.2065 15.7983L76.2443 15.8359C76.8371 16.5252 77.4109 17.2333 77.9469 17.9791L78.3757 18.5681C81.1749 22.572 83.1231 27.101 84.1013 31.8785C84.815 35.3167 85.0631 38.8341 84.8391 42.3376C84.8436 42.3474 84.846 42.3581 84.846 42.3689C84.846 42.3797 84.8436 42.3904 84.8391 42.4003C84.7142 44.4394 84.4403 46.4668 84.0193 48.4664C83.4954 50.9705 82.757 53.4255 81.8123 55.8047C79.9876 60.413 77.4424 64.7063 74.2706 68.526ZM88.8117 39.0727C88.8117 38.9285 88.8117 38.7844 88.8117 38.6465C88.8117 38.5087 88.8117 38.2705 88.8117 38.0763C88.8117 37.4496 88.7486 36.8229 88.6982 36.1524C88.6982 35.9205 88.6541 35.6949 88.6288 35.4631C88.6036 35.2312 88.5847 35.0244 88.5595 34.8364C88.5595 34.7675 88.5595 34.6985 88.5595 34.6233L88.4838 34.0405C88.446 33.7836 88.4145 33.5267 88.3766 33.2697C88.2631 32.5428 88.1307 31.8221 87.9793 31.114C86.6541 24.5633 83.665 18.4583 79.2963 13.3793C79.145 13.1913 78.981 13.0033 78.8108 12.8216C78.6405 12.6399 78.4198 12.3829 78.218 12.1949C78.0163 12.0069 77.8208 11.7751 77.5875 11.5683C77.3541 11.3615 77.1839 11.1547 76.9569 10.9416C76.9434 10.9219 76.9263 10.9048 76.9064 10.8915C76.7362 10.7285 76.5722 10.5656 76.3957 10.4152C76.2191 10.2648 76.0489 10.0831 75.866 9.93267C69.7119 4.43018 61.9466 1.0306 53.7075 0.231867C52.5347 0.106533 51.3681 0.0376 50.2015 0H49.0791H48.1522C41.8845 0.180126 35.719 1.62348 30.0294 4.24253C28.7683 4.81489 27.5239 5.44156 26.2964 6.12253C25.6658 6.4672 25.0857 6.81813 24.4929 7.1816C23.9002 7.54507 23.3075 7.92107 22.7273 8.3096C22.1472 8.69813 21.5734 9.10547 21.0059 9.5128C19.5889 10.5515 18.2252 11.66 16.9197 12.8341C16.3963 13.3041 15.8793 13.7867 15.3748 14.2755C8.09796 21.3001 3.08511 30.3148 0.972453 40.1756C-1.6066 52.5585 0.972453 64.2709 7.27822 73.1633C8.99922 75.603 11.0059 77.8308 13.2561 79.7997L13.4579 79.9815L13.8993 80.3512L14.6433 80.9779L15.2739 81.4729L15.9045 81.9492L16.0937 82.0871L16.554 82.4067C18.6151 83.8408 20.8139 85.0688 23.1183 86.0727C26.9259 87.7237 30.9671 88.7806 35.0992 89.206C35.8875 89.2875 36.6694 89.3501 37.4513 89.3815H38.2521C38.6998 89.3815 39.1538 89.3815 39.6079 89.3815C46.5729 89.343 53.4398 87.7451 59.698 84.7065L60.3286 84.412L60.4421 84.3556H60.4862L60.6691 84.2679L61.0664 84.0611L61.1736 84.0109L61.2366 83.9733H61.2997L61.5834 83.8229C61.668 83.784 61.7501 83.74 61.8294 83.6913C62.0564 83.5723 62.2834 83.4532 62.5041 83.3279L62.6302 83.2527L63.4121 82.8077L64.0805 82.4067L64.5535 82.1184L64.5976 82.0871C64.7237 82.0181 64.8372 81.9367 64.957 81.8615L65.1966 81.7111L65.2534 81.6735L65.3101 81.6296L65.3921 81.5857L65.5245 81.4917L66.0668 81.1408L66.1929 81.0468L66.256 81.0092L66.3632 80.934C66.8109 80.6332 67.2523 80.3073 67.6937 79.994L68.3243 79.5491L68.4252 79.4739C68.4252 79.4739 68.4567 79.4739 68.4693 79.4363C68.6081 79.336 68.7468 79.2232 68.8918 79.1104L69.081 78.9663H69.1188L69.7872 78.4336C69.9512 78.3083 70.1151 78.1704 70.2791 78.0325L70.462 77.8821L70.5818 77.7819L70.8466 77.5563C71.7231 76.8043 72.587 76.0272 73.4193 75.2125C74.9408 73.7351 76.3686 72.1655 77.6947 70.5125C78.1424 69.9611 78.5712 69.4033 78.9936 68.8331C79.2038 68.5532 79.414 68.2649 79.6242 67.9683C79.8008 67.7239 79.971 67.4732 80.1476 67.2163C80.3746 66.8841 80.5953 66.5457 80.816 66.2073C81.207 65.5807 81.579 65.0041 81.9447 64.39C82.3042 63.7633 82.6573 63.1367 82.9915 62.51C83.1113 62.2907 83.2248 62.0651 83.3446 61.8332L83.4896 61.5575C84.5971 59.3756 85.5414 57.1155 86.3146 54.7957L86.3903 54.5827C87.5791 50.9861 88.3389 47.2633 88.6541 43.4907C88.6541 43.1711 88.6982 42.864 88.7171 42.5319C88.736 42.1997 88.755 41.9052 88.7676 41.5856V41.0028C88.7676 40.8085 88.7676 40.6143 88.7676 40.42C88.8243 39.9312 88.8243 39.48 88.8117 39.0664V39.0727Z" fill="url(#paint1_linear_401_79809)"></path><path d="M71.6032 24.2378L67.3972 21.3175L70.733 25.2091L70.796 26.5L67.8386 30.7614L71.7482 27.3648L73.0409 27.2896L77.2468 30.2036L73.9111 26.3183L73.848 25.0211L76.8117 20.7598L72.8958 24.1626L71.6032 24.2378Z" fill="white"></path><path opacity="0.7" d="M53.5791 0.231877C52.0813 0.0763523 50.5764 -0.00104271 49.0704 1.06072e-05C26.7102 1.06072e-05 5.67421 17.1519 0.862915 40.1756L4.6842 40.9652C6.92187 30.5544 12.6297 21.1989 20.8837 14.4133C29.0812 7.60774 39.1136 3.86028 49.0767 3.86028C50.4437 3.85922 51.8098 3.93034 53.1692 4.07334C58.036 4.52016 62.7518 5.9892 67.0044 8.38321C71.257 10.7772 74.9495 14.0416 77.8373 17.9603C80.8685 22.1025 82.9655 26.8455 83.9854 31.866C84.7052 35.3435 84.9491 38.9017 84.7106 42.4441L88.6769 40.9025C89.2003 19.8904 74.7979 2.45028 53.5791 0.231877Z" fill="url(#paint2_linear_401_79809)"></path><path d="M93.1924 52.9358C93.1924 53.011 93.1609 53.08 93.1482 53.1552C92.3475 57.274 91.0231 61.2749 89.2071 65.0618C86.766 70.1538 83.498 74.8117 79.5341 78.8485L73.5752 75.0196C76.0104 72.6243 78.2047 69.9987 80.1269 67.18C81.3107 65.4492 82.3929 63.6518 83.368 61.7969C83.4185 61.7029 83.4626 61.6089 83.5131 61.5212C85.4744 57.7157 86.9164 53.6672 87.801 49.4829L93.1924 52.9358Z" fill="#CF8730"></path><path d="M62.2148 90.5262C53.7775 94.0385 44.46 94.898 35.5162 92.989L36.2855 89.2979C36.6807 89.3314 37.078 89.3564 37.4773 89.3731H38.2719C45.1345 89.5274 51.9469 88.1751 58.2233 85.4126L62.2148 90.5262Z" fill="#CF8730"></path><path d="M90.8678 28.3296L86.1952 25.0647C84.5744 20.7969 82.2282 16.8373 79.2589 13.3586C79.1076 13.1706 78.9436 12.9826 78.7734 12.7946L78.1869 12.1679C77.9851 11.9548 77.775 11.7459 77.5564 11.5412L76.9258 10.9146H77.0267C79.1517 12.7507 81.302 14.5743 83.2315 16.6047C85.311 18.8048 87.1228 21.2405 88.6292 23.8615C89.4747 25.2997 90.2225 26.7924 90.8678 28.3296Z" fill="#CF8730"></path><path d="M44.4824 38.2248C44.3833 36.8949 44.0257 35.5968 43.4293 34.4022C42.8262 33.1951 41.9981 32.1127 40.989 31.2124C38.9208 29.3625 36.2361 28.3399 33.4536 28.3423C31.5232 28.3464 29.6143 28.7445 27.8451 29.512C26.076 30.2796 24.4843 31.4001 23.1689 32.8042C21.9953 34.0175 21.0887 35.4604 20.5068 37.041C19.9249 38.6216 19.6804 40.3052 19.789 41.9848C20.0303 44.7033 21.2949 47.2313 23.3302 49.0634C25.3654 50.8955 28.0214 51.8969 30.7673 51.8674C32.7058 51.8607 34.6223 51.4585 36.3979 50.6856C38.1735 49.9127 39.7705 48.7856 41.0899 47.3742C43.2466 45.1287 44.46 42.1499 44.4824 39.0458C44.4824 38.77 44.4824 38.4943 44.4824 38.2248ZM27.7091 35.9563C28.4224 35.1721 29.2904 34.5422 30.2591 34.1055C31.2278 33.6689 32.2765 33.435 33.3401 33.4183C34.6996 33.4175 36.0091 33.9272 37.0065 34.8452C38.0039 35.7632 38.6156 37.0218 38.7189 38.369C38.7628 39.4348 38.5939 40.4988 38.2221 41.4995C37.8503 42.5003 37.2828 43.418 36.5525 44.1997C35.8221 44.9815 34.9432 45.6119 33.9666 46.0545C32.9899 46.4972 31.9348 46.7433 30.8619 46.7788C29.5159 46.7651 28.2243 46.2491 27.2432 45.3333C26.262 44.4174 25.6631 43.1686 25.5651 41.8344C25.4998 40.7611 25.6564 39.6858 26.0251 38.6749C26.3938 37.664 26.9669 36.7388 27.7091 35.9563Z" fill="#94512A"></path><path d="M70.5383 38.2248C70.4428 36.8951 70.0873 35.5966 69.4916 34.4022C68.8879 33.1938 68.0575 32.1111 67.0449 31.2124C64.98 29.3614 62.2968 28.3385 59.5159 28.3423C57.5848 28.3478 55.6753 28.7465 53.9053 29.5139C52.1353 30.2813 50.5424 31.4011 49.2249 32.8042C48.0568 34.0207 47.1552 35.4645 46.5767 37.0446C45.9982 38.6247 45.7555 40.3068 45.8639 41.9848C46.1066 44.7028 47.3716 47.2298 49.4066 49.0617C51.4415 50.8935 54.0967 51.8954 56.8422 51.8674C58.7839 51.8633 60.7039 51.4623 62.483 50.6893C64.2621 49.9163 65.8621 48.7879 67.1837 47.3742C68.3516 46.1643 69.2531 44.7259 69.8307 43.1506C70.4083 41.5754 70.6493 39.8978 70.5383 38.2248ZM53.8911 35.9688C54.6061 35.1851 55.4753 34.5554 56.445 34.1189C57.4146 33.6823 58.4641 33.4482 59.5285 33.4308C60.8875 33.4315 62.1963 33.9417 63.1934 34.8594C64.1905 35.7772 64.8025 37.0349 64.9073 38.3815C64.9646 39.453 64.8 40.5248 64.4236 41.5305C64.0472 42.5362 63.4671 43.4544 62.7192 44.2283C62.0007 45.0194 61.126 45.6553 60.1497 46.0962C59.1734 46.5371 58.1163 46.7737 57.044 46.7914C55.6925 46.7855 54.3931 46.273 53.4053 45.3564C52.4175 44.4398 51.8141 43.1865 51.7156 41.847C51.6524 40.7693 51.8129 39.6903 52.1872 38.6769C52.5614 37.6635 53.1414 36.7374 53.8911 35.9563V35.9688Z" fill="#94512A"></path><path d="M59.7808 54.4585L59.6105 54.7217C57.5831 57.7736 54.8223 60.2754 51.5778 62.0008C48.3333 63.7263 44.7073 64.621 41.0275 64.6042C39.627 64.6065 38.2295 64.4785 36.8531 64.222L36.5504 64.1656L35.5162 69.6364L35.8189 69.6928C37.5363 70.0137 39.28 70.1753 41.0275 70.1753C45.6357 70.1915 50.1754 69.0668 54.2366 66.9027C58.2979 64.7386 61.7528 61.6033 64.2894 57.7798L64.4596 57.5166L59.7808 54.4585Z" fill="#94512A"></path><path d="M42.9605 37.3435C42.8674 36.0126 42.5095 34.7133 41.9075 33.5208C41.305 32.3115 40.4769 31.2269 39.4671 30.3248C37.3974 28.4782 34.7132 27.458 31.9318 27.4609C30.0015 27.4658 28.0928 27.8643 26.3237 28.6317C24.5547 29.3992 22.9629 30.5193 21.6471 31.9228C20.4754 33.1396 19.571 34.5851 18.9913 36.1677C18.4116 37.7503 18.1693 39.4354 18.2798 41.116C18.5254 43.834 19.7922 46.3602 21.8278 48.1917C23.8635 50.0231 26.5186 51.0252 29.2644 50.9985C31.202 50.9921 33.1176 50.59 34.8922 49.817C36.6669 49.0441 38.2627 47.9169 39.5806 46.5053C41.7438 44.2624 42.9639 41.2836 42.9921 38.1769C42.9921 37.9012 42.9794 37.6004 42.9605 37.3435ZM26.1935 35.0937C26.912 34.304 27.7871 33.6703 28.7637 33.2324C29.7403 32.7946 30.7974 32.5621 31.8687 32.5495C33.2263 32.5515 34.5334 33.0613 35.53 33.9774C36.5266 34.8936 37.1398 36.1489 37.2475 37.4939C37.2989 38.5689 37.1278 39.643 36.7449 40.6497C36.3621 41.6564 35.7755 42.5744 35.0216 43.3469C34.3023 44.1372 33.4276 44.7724 32.4514 45.2133C31.4753 45.6541 30.4185 45.8913 29.3464 45.91C27.9943 45.9042 26.6941 45.392 25.7053 44.4755C24.7164 43.559 24.1117 42.3057 24.0117 40.9656C23.9523 39.8906 24.1153 38.815 24.4905 37.8051C24.8658 36.7951 25.4454 35.8724 26.1935 35.0937Z" fill="url(#paint3_linear_401_79809)"></path><path d="M69.0279 37.3436C68.9332 36.0137 68.5776 34.7151 67.9811 33.5209C67.38 32.3108 66.5517 31.226 65.5408 30.3249C63.4636 28.47 60.7664 27.4492 57.9739 27.461C56.0437 27.4666 54.1353 27.8654 52.3663 28.6329C50.5974 29.4003 49.0056 30.52 47.6892 31.9229C46.5173 33.1393 45.6133 34.585 45.0346 36.1678C44.456 37.7506 44.2154 39.4358 44.3282 41.1161C44.5708 43.833 45.835 46.3591 47.8686 48.1908C49.9022 50.0225 52.5558 51.0251 55.3003 50.9987C57.2388 50.9927 59.1555 50.5908 60.9312 49.8179C62.707 49.0449 64.3039 47.9174 65.6228 46.5055C66.8014 45.2984 67.7131 43.8599 68.2995 42.2821C68.8859 40.7043 69.134 39.0222 69.0279 37.3436ZM52.3807 35.0938C53.101 34.3067 53.9765 33.6751 54.9528 33.2385C55.9291 32.8019 56.9853 32.5695 58.0559 32.5558C59.4068 32.5643 60.7053 33.0764 61.6943 33.9909C62.6834 34.9054 63.291 36.1555 63.3968 37.494C63.4559 38.5661 63.2927 39.6388 62.9174 40.6456C62.5421 41.6524 61.9626 42.5719 61.215 43.347C60.4968 44.1385 59.6222 44.7745 58.6458 45.2155C57.6695 45.6564 56.6122 45.8929 55.5399 45.9101C54.1884 45.9042 52.889 45.3918 51.9012 44.4751C50.9134 43.5585 50.3099 42.3052 50.2115 40.9657C50.1497 39.8916 50.3103 38.8162 50.6834 37.8062C51.0565 36.7963 51.6342 35.8731 52.3807 35.0938Z" fill="url(#paint4_linear_401_79809)"></path><path d="M58.2713 53.5864L58.101 53.8434C56.0743 56.8964 53.3139 59.3994 50.0693 61.126C46.8247 62.8525 43.1983 63.7483 39.5179 63.7321C38.1175 63.7341 36.72 63.6061 35.3435 63.3499L35.0219 63.2935L33.9878 68.7643L34.2968 68.8207C36.012 69.1416 37.7536 69.3032 39.499 69.3032C44.1089 69.3198 48.6502 68.1946 52.7127 66.0293C56.7752 63.8641 60.2308 60.727 62.7673 56.9015L62.9375 56.6446L58.2713 53.5864Z" fill="url(#paint5_linear_401_79809)"></path></g><defs><linearGradient id="paint0_linear_401_79809" x1="85.5329" y1="119.83" x2="28.5365" y2="6.01838" gradientUnits="userSpaceOnUse"><stop stop-color="#FFD243"></stop><stop offset="1" stop-color="#CD571B"></stop></linearGradient><linearGradient id="paint1_linear_401_79809" x1="54.0291" y1="81.9304" x2="53.7861" y2="80.9897" gradientUnits="userSpaceOnUse"><stop stop-color="#FFDE43"></stop><stop offset="0.2" stop-color="#FFDE43"></stop><stop offset="0.56" stop-color="#FFD13E"></stop><stop offset="1" stop-color="#FFBD37"></stop></linearGradient><linearGradient id="paint2_linear_401_79809" x1="53.5791" y1="109.548" x2="53.4358" y2="108.419" gradientUnits="userSpaceOnUse"><stop stop-color="#FFFFA0"></stop><stop offset="0.02" stop-color="#FFFFA0"></stop><stop offset="0.98" stop-color="#FFEB6A"></stop><stop offset="1" stop-color="#FFEB6A"></stop></linearGradient><linearGradient id="paint3_linear_401_79809" x1="18.2483" y1="39.2297" x2="42.9921" y2="39.2297" gradientUnits="userSpaceOnUse"><stop stop-color="#FFDE43"></stop><stop offset="0.16" stop-color="#FFDE43"></stop><stop offset="0.25" stop-color="#FFDA41"></stop><stop offset="1" stop-color="#FFBD37"></stop></linearGradient><linearGradient id="paint4_linear_401_79809" x1="1795.66" y1="1500.95" x2="2766.38" y2="1500.95" gradientUnits="userSpaceOnUse"><stop stop-color="#FFDE43"></stop><stop offset="0.16" stop-color="#FFDE43"></stop><stop offset="0.25" stop-color="#FFDA41"></stop><stop offset="1" stop-color="#FFBD37"></stop></linearGradient><linearGradient id="paint5_linear_401_79809" x1="1608.56" y1="1594.63" x2="2937.36" y2="1594.63" gradientUnits="userSpaceOnUse"><stop stop-color="#FFDE43"></stop><stop offset="0.16" stop-color="#FFDE43"></stop><stop offset="0.25" stop-color="#FFDA41"></stop><stop offset="1" stop-color="#FFBD37"></stop></linearGradient><clipPath id="clip0_401_79809"><rect width="94" height="94" fill="white"></rect></clipPath></defs></svg>