<svg width="48" height="49" viewBox="0 0 48 49" fill="none" xmlns="http://www.w3.org/2000/svg"><rect x="4" y="4.5" width="40" height="40" rx="20" fill="#969696"></rect><path d="M24 34C18.7532 34 14.5 29.7469 14.5 24.5C14.5 19.2532 18.7532 15 24 15C29.2469 15 33.5 19.2532 33.5 24.5C33.5 29.7469 29.2469 34 24 34ZM24 32.1C26.0156 32.1 27.9487 31.2993 29.374 29.874C30.7993 28.4487 31.6 26.5156 31.6 24.5C31.6 22.4844 30.7993 20.5513 29.374 19.126C27.9487 17.7007 26.0156 16.9 24 16.9C21.9844 16.9 20.0513 17.7007 18.626 19.126C17.2007 20.5513 16.4 22.4844 16.4 24.5C16.4 26.5156 17.2007 28.4487 18.626 29.874C20.0513 31.2993 21.9844 32.1 24 32.1ZM19.25 24.025L27.8 20.7L24.475 29.2519L23.05 25.45L19.25 24.025Z" fill="white"></path><rect x="4" y="4.5" width="40" height="40" rx="20" stroke="#676767" stroke-width="8"></rect></svg>