<svg class="mb-2" height="32" viewBox="0 0 33 34" fill="none" xmlns="http://www.w3.org/2000/svg"><g clip-path="url(#clip0_3109_185409)"><path fill-rule="evenodd" clip-rule="evenodd" d="M7.64921 8.19461C7.98932 7.51461 8.51204 6.94275 9.15882 6.54306C9.80559 6.14338 10.5509 5.93167 11.3112 5.93164H21.586C22.3463 5.93167 23.0916 6.14338 23.7383 6.54306C24.3851 6.94275 24.9078 7.51461 25.2479 8.19461L27.1397 11.9767C27.4727 11.8402 27.8003 11.6928 28.1224 11.5345C28.4463 11.3727 28.8213 11.3462 29.1648 11.4608C29.5083 11.5755 29.7922 11.8219 29.954 12.1459C30.1158 12.4699 30.1423 12.8449 30.0276 13.1884C29.913 13.5319 29.6665 13.8158 29.3426 13.9776C29.0145 14.1236 28.6846 14.2656 28.353 14.4034L29.6647 17.0281C29.9494 17.5972 30.0975 18.2248 30.0973 18.8611V22.3102C30.0982 22.8864 29.977 23.4563 29.7418 23.9823C29.5065 24.5083 29.1625 24.9785 28.7325 25.362V27.0872C28.7325 27.6302 28.5168 28.151 28.1328 28.5349C27.7489 28.9188 27.2281 29.1346 26.6852 29.1346C26.1422 29.1346 25.6214 28.9188 25.2375 28.5349C24.8535 28.151 24.6378 27.6302 24.6378 27.0872V26.4048H8.25931V27.0872C8.25931 27.6302 8.04361 28.151 7.65967 28.5349C7.27572 28.9188 6.75498 29.1346 6.212 29.1346C5.66902 29.1346 5.14827 28.9188 4.76433 28.5349C4.38038 28.151 4.16468 27.6302 4.16468 27.0872V25.362C3.32665 24.6113 2.7998 23.5222 2.7998 22.3102V18.8598C2.80006 18.2243 2.94819 17.5977 3.23247 17.0295L4.5332 14.4253C4.20426 14.2861 3.87806 14.1386 3.55731 13.979C3.23497 13.815 2.98995 13.531 2.87505 13.1881C2.76016 12.8453 2.78461 12.471 2.94312 12.1459C3.02318 11.9855 3.13408 11.8423 3.26948 11.7247C3.40488 11.6072 3.56213 11.5174 3.73224 11.4606C3.90234 11.4038 4.08197 11.3811 4.26086 11.3938C4.43974 11.4065 4.61438 11.4543 4.77478 11.5345C5.09689 11.6942 5.42583 11.8402 5.75749 11.9767L7.64921 8.19597V8.19461ZM12.3539 20.2628C12.3539 20.8058 12.1382 21.3266 11.7543 21.7105C11.3704 22.0945 10.8496 22.3102 10.3066 22.3102C9.76365 22.3102 9.2429 22.0945 8.85896 21.7105C8.47501 21.3266 8.25931 20.8058 8.25931 20.2628C8.25931 19.7199 8.47501 19.1991 8.85896 18.8152C9.2429 18.4312 9.76365 18.2155 10.3066 18.2155C10.8496 18.2155 11.3704 18.4312 11.7543 18.8152C12.1382 19.1991 12.3539 19.7199 12.3539 20.2628ZM22.5905 22.3102C23.1335 22.3102 23.6542 22.0945 24.0382 21.7105C24.4221 21.3266 24.6378 20.8058 24.6378 20.2628C24.6378 19.7199 24.4221 19.1991 24.0382 18.8152C23.6542 18.4312 23.1335 18.2155 22.5905 18.2155C22.0475 18.2155 21.5268 18.4312 21.1429 18.8152C20.7589 19.1991 20.5432 19.7199 20.5432 20.2628C20.5432 20.8058 20.7589 21.3266 21.1429 21.7105C21.5268 22.0945 22.0475 22.3102 22.5905 22.3102ZM10.091 9.41617C10.2042 9.18949 10.3784 8.99882 10.5939 8.86552C10.8094 8.73221 11.0578 8.66153 11.3112 8.66139H21.586C21.8394 8.66153 22.0877 8.73221 22.3032 8.86552C22.5188 8.99882 22.6929 9.18949 22.8062 9.41617L24.5396 12.8802C22.4267 13.5135 19.5796 14.1209 16.4486 14.1209C13.3175 14.1209 10.4704 13.5135 8.35895 12.8789L10.091 9.41617Z" fill="url(#paint0_linear_3109_185409)"></path></g><defs><linearGradient id="paint0_linear_3109_185409" x1="16.4489" y1="5.93164" x2="16.4489" y2="29.1346" gradientUnits="userSpaceOnUse"><stop stop-color="#1476D1"></stop><stop offset="1" stop-color="#3776F4"></stop></linearGradient><clipPath id="clip0_3109_185409"><rect width="32.757" height="32.757" fill="white" transform="translate(0.0700684 0.472656)"></rect></clipPath></defs></svg>