<svg width="25" height="18" viewBox="0 0 25 18" fill="none" xmlns="http://www.w3.org/2000/svg"><path d="M20.92 3.39764H17.297V1.59766C17.297 1.39874 17.218 1.20797 17.0773 1.06732C16.9367 0.926669 16.7459 0.847656 16.547 0.847656C16.3481 0.847656 16.1573 0.926669 16.0167 1.06732C15.876 1.20797 15.797 1.39874 15.797 1.59766V3.39764H8.65802V1.59766C8.65802 1.39874 8.57901 1.20797 8.43835 1.06732C8.2977 0.926669 8.10693 0.847656 7.90802 0.847656C7.70911 0.847656 7.51834 0.926669 7.37769 1.06732C7.23703 1.20797 7.15802 1.39874 7.15802 1.59766V3.39764H3.55801C2.61453 3.3987 1.70999 3.77404 1.04294 4.44128C0.375885 5.10853 0.000794034 6.01318 0 6.95667V13.5947C0.00105872 14.538 0.376279 15.4424 1.0433 16.1094C1.71033 16.7764 2.6147 17.1516 3.55801 17.1526H20.921C21.8642 17.1516 22.7685 16.7764 23.4354 16.1093C24.1022 15.4423 24.4772 14.5379 24.478 13.5947V6.95667C24.4775 6.0131 24.1025 5.10828 23.4354 4.44098C22.7683 3.77368 21.8636 3.39844 20.92 3.39764ZM22.977 13.5977C22.9765 14.1431 22.7596 14.6661 22.374 15.0519C21.9884 15.4377 21.4655 15.6548 20.92 15.6556H3.55701C3.01144 15.6548 2.48844 15.4378 2.10266 15.052C1.71688 14.6662 1.49982 14.1432 1.49902 13.5977V6.95966C1.49955 6.41391 1.71649 5.89063 2.10229 5.50464C2.4881 5.11864 3.01126 4.90143 3.55701 4.90063H20.92C21.4657 4.90143 21.9887 5.11868 22.3744 5.5047C22.76 5.89072 22.9768 6.414 22.977 6.95966V13.5977Z" fill="#667085"></path><path d="M11.344 7.68945H3.89795C3.69904 7.68945 3.50827 7.76847 3.36761 7.90912C3.22696 8.04977 3.14795 8.24054 3.14795 8.43945C3.14795 8.63837 3.22696 8.82914 3.36761 8.96979C3.50827 9.11044 3.69904 9.18945 3.89795 9.18945H11.344C11.5429 9.18945 11.7336 9.11044 11.8743 8.96979C12.0149 8.82914 12.094 8.63837 12.094 8.43945C12.094 8.24054 12.0149 8.04977 11.8743 7.90912C11.7336 7.76847 11.5429 7.68945 11.344 7.68945Z" fill="#667085"></path><path d="M17.067 6.65134L14.082 9.63635C14.0103 9.7055 13.9532 9.78825 13.9138 9.87973C13.8745 9.97121 13.8537 10.0696 13.8528 10.1692C13.8519 10.2688 13.8709 10.3675 13.9085 10.4597C13.9462 10.5519 14.0018 10.6357 14.0722 10.7061C14.1426 10.7766 14.2263 10.8323 14.3185 10.8701C14.4106 10.9078 14.5094 10.9268 14.609 10.926C14.7086 10.9252 14.8069 10.9046 14.8985 10.8653C14.99 10.826 15.0728 10.769 15.142 10.6974L17.019 8.81635V13.3604C17.019 13.5593 17.098 13.75 17.2387 13.8907C17.3793 14.0313 17.5701 14.1104 17.769 14.1104C17.9679 14.1104 18.1587 14.0313 18.2993 13.8907C18.44 13.75 18.519 13.5593 18.519 13.3604V9.05334L20.163 10.6974C20.2322 10.769 20.315 10.826 20.4065 10.8653C20.498 10.9046 20.5965 10.9252 20.6961 10.926C20.7957 10.9268 20.8944 10.9078 20.9865 10.8701C21.0787 10.8323 21.1624 10.7766 21.2328 10.7061C21.3032 10.6357 21.3588 10.5519 21.3965 10.4597C21.4342 10.3675 21.4531 10.2688 21.4522 10.1692C21.4513 10.0696 21.4306 9.97121 21.3912 9.87973C21.3519 9.78825 21.2947 9.7055 21.223 9.63635L18.238 6.65134C18.0721 6.51611 17.8645 6.44229 17.6505 6.44229C17.4364 6.44229 17.229 6.51611 17.063 6.65134H17.067Z" fill="#667085"></path><path d="M8.47995 11.3604H3.89795C3.69904 11.3604 3.50827 11.4394 3.36761 11.58C3.22696 11.7207 3.14795 11.9114 3.14795 12.1104C3.14795 12.3093 3.22696 12.5 3.36761 12.6407C3.50827 12.7813 3.69904 12.8604 3.89795 12.8604H8.47995C8.67886 12.8604 8.86963 12.7813 9.01028 12.6407C9.15094 12.5 9.22995 12.3093 9.22995 12.1104C9.22995 11.9114 9.15094 11.7207 9.01028 11.58C8.86963 11.4394 8.67886 11.3604 8.47995 11.3604Z" fill="#667085"></path></svg>