<svg class="mb-2" height="32" viewBox="0 0 33 33" fill="none" xmlns="http://www.w3.org/2000/svg"><g clip-path="url(#clip0_3117_186772)"><path d="M30.3266 8.67188H28.9866V4.67188C28.9866 3.61101 28.5651 2.59359 27.815 1.84345C27.0649 1.0933 26.0474 0.671875 24.9866 0.671875L8.98657 0.671875C7.92571 0.671875 6.90829 1.0933 6.15814 1.84345C5.408 2.59359 4.98657 3.61101 4.98657 4.67188V8.67188H3.62657C3.45683 8.67188 3.29405 8.7393 3.17402 8.85933C3.054 8.97935 2.98657 9.14214 2.98657 9.31188V14.0319C2.98657 14.3859 3.27257 14.6719 3.62657 14.6719H4.98657V26.6719C4.98657 27.7719 4.98657 28.6719 6.98657 28.6719V31.6719C6.98657 31.9371 7.09193 32.1914 7.27947 32.379C7.467 32.5665 7.72136 32.6719 7.98657 32.6719H11.9866C12.2518 32.6719 12.5061 32.5665 12.6937 32.379C12.8812 32.1914 12.9866 31.9371 12.9866 31.6719V28.6719H20.9866V31.6719C20.9866 31.9371 21.0919 32.1914 21.2795 32.379C21.467 32.5665 21.7214 32.6719 21.9866 32.6719H25.9866C26.2518 32.6719 26.5061 32.5665 26.6937 32.379C26.8812 32.1914 26.9866 31.9371 26.9866 31.6719V28.6719C28.9866 28.6719 28.9866 27.7719 28.9866 26.6719V14.6719H30.3266C30.5016 14.6719 30.6695 14.6023 30.7933 14.4786C30.917 14.3548 30.9866 14.1869 30.9866 14.0119C30.9866 13.8368 30.917 13.669 30.7933 13.5452C30.6695 13.4214 30.5016 13.3519 30.3266 13.3519C30.1515 13.3519 29.9837 13.4214 29.8599 13.5452C29.7361 13.669 29.6666 13.8368 29.6666 14.0119C29.6666 14.1869 29.7361 14.3548 29.8599 14.4786C29.9837 14.6023 30.1515 14.6719 30.3266 14.6719C30.5016 14.6719 30.6695 14.6023 30.7933 14.4786C30.917 14.3548 30.9866 14.1869 30.9866 14.0119V9.33187C30.9866 9.15683 30.917 8.98896 30.7933 8.86518C30.6695 8.74141 30.5016 8.67188 30.3266 8.67188ZM12.9866 2.67188H20.9866V4.67188H12.9866V2.67188ZM8.98657 24.6719C8.45614 24.6719 7.94743 24.4612 7.57236 24.0861C7.19729 23.711 6.98657 23.2023 6.98657 22.6719C6.98657 22.1414 7.19729 21.6327 7.57236 21.2577C7.94743 20.8826 8.45614 20.6719 8.98657 20.6719C9.51701 20.6719 10.0257 20.8826 10.4008 21.2577C10.7759 21.6327 10.9866 22.1414 10.9866 22.6719C10.9866 23.2023 10.7759 23.711 10.4008 24.0861C10.0257 24.4612 9.51701 24.6719 8.98657 24.6719ZM6.98657 16.6719V6.67188H26.9866V16.6719H6.98657ZM24.9866 24.6719C24.4561 24.6719 23.9474 24.4612 23.5724 24.0861C23.1973 23.711 22.9866 23.2023 22.9866 22.6719C22.9866 22.1414 23.1973 21.6327 23.5724 21.2577C23.9474 20.8826 24.4561 20.6719 24.9866 20.6719C25.517 20.6719 26.0257 20.8826 26.4008 21.2577C26.7759 21.6327 26.9866 22.1414 26.9866 22.6719C26.9866 23.2023 26.7759 23.711 26.4008 24.0861C26.0257 24.4612 25.517 24.6719 24.9866 24.6719Z" fill="url(#paint0_linear_3117_186772)"></path></g><defs><linearGradient id="paint0_linear_3117_186772" x1="16.9866" y1="0.671875" x2="16.9866" y2="32.6719" gradientUnits="userSpaceOnUse"><stop stop-color="#1476D1"></stop><stop offset="1" stop-color="#3776F4"></stop></linearGradient><clipPath id="clip0_3117_186772"><rect width="32" height="32" fill="white" transform="translate(0.986572 0.671875)"></rect></clipPath></defs></svg>