<svg class="mb-2" height="32" viewBox="0 0 31 31" fill="none" xmlns="http://www.w3.org/2000/svg"><g clip-path="url(#clip0_3109_185378)"><path d="M9.86571 27.2139C10.0661 27.2165 10.2665 27.2139 10.4676 27.2139C9.8536 28.286 9.23424 29.3549 8.63169 30.433C8.52477 30.6236 8.40776 30.6915 8.1892 30.6824C7.76486 30.6648 7.33985 30.6772 6.84961 30.6772C7.50999 29.5201 8.14952 28.3983 8.8247 27.2152" fill="url(#paint0_linear_3109_185378)"></path><path d="M22.0747 27.2145C22.7398 28.3801 23.3807 29.5032 24.0498 30.6759C23.5131 30.6759 23.0269 30.672 22.5414 30.6785C22.3746 30.6804 22.3471 30.5557 22.2906 30.4571C21.6699 29.3765 21.0505 28.2952 20.4312 27.2139" fill="url(#paint1_linear_3109_185378)"></path><path fill-rule="evenodd" clip-rule="evenodd" d="M4.21402 20.951C4.27522 20.7989 4.37004 20.5945 4.51866 20.3732C4.91005 19.7888 5.39961 19.4871 5.58858 19.3728C5.82328 19.2311 6.7002 18.8093 7.83334 18.8655C8.92411 18.919 10.07 19.6908 10.4769 20.6872C10.5576 20.8844 10.6632 20.9563 10.9046 20.9556C13.9603 20.9491 17.0168 20.9504 20.0726 20.9543C20.2851 20.9543 20.4041 20.9125 20.4868 20.7179C20.9791 19.5576 22.1109 18.8668 23.4834 18.8635C23.7719 18.8629 24.8317 18.8877 25.7584 19.6497C26.2002 20.0127 26.4538 20.4123 26.591 20.6729C26.6024 20.7192 26.6136 20.7657 26.6249 20.8123C26.6362 20.8588 26.6474 20.9053 26.6589 20.9517C26.6656 21.7091 26.6721 22.4665 26.6786 23.224L26.6788 23.2402L26.6789 23.2498C26.6854 24.0053 26.6919 24.7608 26.6986 25.5165C26.708 25.6001 26.7571 26.0879 26.5365 26.4751C26.4363 26.6514 26.2951 26.7879 26.2951 26.7879C26.2782 26.8042 26.174 26.9041 26.0328 26.9883C25.7268 27.1705 25.3899 27.196 25.2924 27.1973C24.6387 27.2058 24.0732 27.2116 23.6199 27.2162C22.6011 27.226 22.1203 27.2286 21.585 27.2234C21.498 27.2224 21.411 27.2216 21.324 27.2208L21.3238 27.2208C21.2361 27.22 21.1485 27.2191 21.0611 27.2182C20.6541 27.2169 20.2471 27.2153 19.8401 27.2137H19.8398C18.9587 27.2101 18.0777 27.2066 17.1963 27.2071C15.4981 27.208 13.8001 27.2111 12.102 27.2143H12.1015C11.373 27.2156 10.6446 27.217 9.91602 27.2182L9.75118 27.2186L9.75007 27.2186C9.41878 27.2194 8.8672 27.2208 8.16084 27.2208C7.04182 27.2208 6.13733 27.2182 5.56774 27.2156C5.38953 27.1907 5.04589 27.1157 4.75201 26.8473C4.5422 26.656 4.44805 26.4496 4.37744 26.2903C4.23487 25.9684 4.20057 25.6674 4.20057 25.4441C4.18511 24.2217 4.18443 22.9844 4.20057 21.7307C4.20285 21.6043 4.20497 21.4783 4.20709 21.3526L4.20709 21.3526C4.20934 21.2184 4.21159 21.0845 4.21402 20.951ZM23.4092 20.7584C24.2027 20.7564 24.8409 21.3656 24.849 22.1335C24.8577 22.906 24.1973 23.5537 23.4072 23.5485C22.6358 23.5433 21.9734 22.8936 21.9775 22.1466C21.9815 21.3833 22.6244 20.7603 23.4092 20.7584ZM8.76568 22.1401C8.75761 21.3761 8.11471 20.759 7.32656 20.7584C6.53639 20.7571 5.89753 21.3735 5.89417 22.1401C5.89013 22.9119 6.55858 23.5609 7.34337 23.5485C8.11875 23.5361 8.77375 22.887 8.76568 22.1401Z" fill="url(#paint2_linear_3109_185378)"></path><path fill-rule="evenodd" clip-rule="evenodd" d="M4.19527 20.9201C4.1949 19.6713 4.19378 18.4226 4.19267 17.174C4.18969 13.8444 4.18671 10.515 4.19796 7.18568C4.20334 5.71652 5.16432 4.77429 6.9269 4.41582C7.52609 4.29436 8.13334 4.2147 8.74934 4.21209C9.60474 4.20866 10.4605 4.20854 11.3161 4.20842L12.1716 4.20817C12.3043 4.29532 12.3251 4.42112 12.3459 4.54655L12.3459 4.54661C12.3498 4.57059 12.3538 4.59456 12.3586 4.61823C12.7183 6.43086 14.9544 7.43707 16.8333 6.59345C17.7398 6.18665 18.3296 5.52193 18.4755 4.6104C18.4794 4.58611 18.4822 4.56144 18.485 4.53675C18.4994 4.41141 18.5139 4.28564 18.6645 4.20817C19.1304 4.21435 19.5968 4.2082 20.0633 4.20205C21.2254 4.18673 22.3876 4.17141 23.5427 4.3466C24.0006 4.41647 24.4438 4.53335 24.8641 4.70638C25.9892 5.16999 26.5722 5.9542 26.6314 7.02244C26.6563 7.47309 26.6528 7.92485 26.6493 8.37661C26.6481 8.52313 26.647 8.66965 26.6468 8.81613C26.6459 11.507 26.6445 14.1981 26.643 16.8892L26.6408 20.9188C26.4451 20.9244 26.4033 20.8056 26.3643 20.6946C26.3537 20.6645 26.3433 20.635 26.3301 20.6086C26.0302 20.0092 25.5762 19.5371 24.9017 19.2315C23.2494 18.4819 21.2528 19.1094 20.5615 20.6126C20.4304 20.8979 20.2428 21.0187 19.8904 21.018C16.9079 21.0128 13.9248 21.0128 10.9423 21.018C10.5893 21.0187 10.409 20.8927 10.2712 20.6119C9.78429 19.624 8.93158 19.0148 7.67538 18.9344C6.26988 18.845 5.23493 19.3667 4.58329 20.4604C4.55701 20.5052 4.53906 20.5562 4.52096 20.6076C4.47146 20.7484 4.42081 20.8924 4.19527 20.9201ZM10.6606 15.1955L9.59798 15.1957H9.59653C8.71159 15.196 7.8265 15.1962 6.94175 15.1948C6.06685 15.1935 5.55778 14.7789 5.55576 14.0652C5.55307 12.7279 5.5524 11.39 5.55576 10.0528C5.55778 9.35343 6.06551 8.93096 6.9088 8.93031C7.74404 8.92944 8.57928 8.92966 9.41452 8.92987C11.085 8.93031 12.7554 8.93075 14.4258 8.92247C14.7702 8.92052 14.8347 9.01585 14.8334 9.27573C14.8206 11.1354 14.8199 12.9944 14.834 14.854C14.8361 15.1217 14.754 15.2059 14.4191 15.2014C13.5143 15.19 12.6096 15.192 11.7048 15.194H11.7046C11.3566 15.1947 11.0086 15.1955 10.6606 15.1955ZM21.1849 8.92823C20.8345 8.92834 20.484 8.92844 20.1336 8.92844C19.786 8.92844 19.4384 8.92913 19.0908 8.92982C18.1721 8.93164 17.2536 8.93346 16.3354 8.92257C16.0119 8.91865 15.9434 9.00811 15.9447 9.25623C15.9555 11.127 15.9555 12.9971 15.9447 14.8671C15.9434 15.114 16.0093 15.2028 16.3341 15.2015C18.0453 15.1934 19.7568 15.1939 21.4683 15.1944C22.2628 15.1947 23.0573 15.1949 23.8518 15.1943C24.7186 15.1936 25.221 14.7738 25.2223 14.0522C25.225 12.7254 25.225 11.3993 25.2223 10.0724C25.221 9.33916 24.7146 8.9304 23.8134 8.9291C22.9373 8.9277 22.0611 8.92797 21.1849 8.92823Z" fill="url(#paint3_linear_3109_185378)"></path><path fill-rule="evenodd" clip-rule="evenodd" d="M18.6961 3.83781C18.6961 5.5944 17.2296 7.01839 15.4204 7.01839C13.6113 7.01839 12.1448 5.5944 12.1448 3.83781C12.1448 2.08122 13.6113 0.657227 15.4204 0.657227C17.2296 0.657227 18.6961 2.08122 18.6961 3.83781ZM15.4346 2.37414C14.6142 2.36239 13.9329 3.01927 13.9275 3.82698C13.9222 4.64123 14.5785 5.29484 15.407 5.30072C16.2402 5.3066 16.9087 4.66408 16.9141 3.85375C16.9188 3.04082 16.2644 2.38589 15.4346 2.37414Z" fill="url(#paint4_linear_3109_185378)"></path></g><defs><linearGradient id="paint0_linear_3109_185378" x1="8.65859" y1="27.2139" x2="8.65859" y2="30.6832" gradientUnits="userSpaceOnUse"><stop stop-color="#1476D1"></stop><stop offset="1" stop-color="#3776F4"></stop></linearGradient><linearGradient id="paint1_linear_3109_185378" x1="22.2405" y1="27.2139" x2="22.2405" y2="30.6785" gradientUnits="userSpaceOnUse"><stop stop-color="#1476D1"></stop><stop offset="1" stop-color="#3776F4"></stop></linearGradient><linearGradient id="paint2_linear_3109_185378" x1="15.4492" y1="18.8604" x2="15.4492" y2="27.226" gradientUnits="userSpaceOnUse"><stop stop-color="#1476D1"></stop><stop offset="1" stop-color="#3776F4"></stop></linearGradient><linearGradient id="paint3_linear_3109_185378" x1="15.4208" y1="4.19336" x2="15.4208" y2="21.018" gradientUnits="userSpaceOnUse"><stop stop-color="#1476D1"></stop><stop offset="1" stop-color="#3776F4"></stop></linearGradient><linearGradient id="paint4_linear_3109_185378" x1="15.4204" y1="0.657227" x2="15.4204" y2="7.01839" gradientUnits="userSpaceOnUse"><stop stop-color="#1476D1"></stop><stop offset="1" stop-color="#3776F4"></stop></linearGradient><clipPath id="clip0_3109_185378"><rect width="30.0273" height="30.0273" fill="white" transform="translate(0.435059 0.658203)"></rect></clipPath></defs></svg>