<svg class="mb-2" width="32" height="32" viewBox="0 0 25 25" fill="none" xmlns="http://www.w3.org/2000/svg"><mask id="mask0_3117_187039" style="mask-type:alpha;" maskUnits="userSpaceOnUse" x="0" y="0" width="25" height="25"><rect x="0.986572" y="0.0322266" width="24" height="24" fill="#D9D9D9"></rect></mask><g mask="url(#mask0_3117_187039)"><path d="M20.4564 7.65869C21.4232 7.65869 22.3503 8.04272 23.0339 8.72629C23.7174 9.40987 24.1015 10.337 24.1015 11.3037V23.673H13.4768V14.6383C13.4768 12.7872 14.2122 11.0119 15.5211 9.70298C16.83 8.39404 18.6053 7.65869 20.4564 7.65869V7.65869Z" fill="url(#paint0_linear_3117_187039)"></path><path d="M6.05877 0.203613H13.4349C14.5217 0.203613 15.564 0.635348 16.3325 1.40384C17.101 2.17233 17.5327 3.21464 17.5327 4.30145V23.6729H1.96094V4.30145C1.96094 3.21464 2.39267 2.17233 3.16117 1.40384C3.92966 0.635348 4.97196 0.203613 6.05877 0.203613V0.203613Z" fill="url(#paint1_linear_3117_187039)"></path><path d="M5.67041 17.4824H13.821" stroke="white" stroke-width="2" stroke-miterlimit="10"></path><path d="M24.9866 22.8267H0.986572V23.8603H24.9866V22.8267Z" fill="url(#paint2_linear_3117_187039)"></path><path d="M5.67041 11.939H13.821" stroke="white" stroke-width="2" stroke-miterlimit="10"></path><path d="M5.67041 6.77051H13.821" stroke="white" stroke-width="2" stroke-miterlimit="10"></path></g><defs><linearGradient id="paint0_linear_3117_187039" x1="18.7891" y1="7.65869" x2="26.4893" y2="7.65869" gradientUnits="userSpaceOnUse"><stop stop-color="#1476D1"></stop><stop offset="1" stop-color="#3776F4"></stop></linearGradient><linearGradient id="paint1_linear_3117_187039" x1="9.74683" y1="0.203613" x2="9.74683" y2="23.6729" gradientUnits="userSpaceOnUse"><stop stop-color="#1476D1"></stop><stop offset="1" stop-color="#3776F4"></stop></linearGradient><linearGradient id="paint2_linear_3117_187039" x1="31.6346" y1="21.2048" x2="31.5434" y2="29.4742" gradientUnits="userSpaceOnUse"><stop stop-color="#1476D1"></stop><stop offset="1" stop-color="#3776F4"></stop></linearGradient></defs></svg>