<svg class="mb-2" xmlns="http://www.w3.org/2000/svg" height="32" viewBox="0 0 23 21" fill="none"><path d="M13.3562 7.0412L11.7433 6.80823V7.66844L13.3562 7.84765V7.0412Z" fill="#1476D1"></path><path d="M21.3491 8.88711L22.6752 9.0484V8.49285L21.3491 8.29572V8.88711Z" fill="#1476D1"></path><path d="M22.6752 4.86821L11.7433 2.82977V4.33515L22.6752 6.00182V4.86821Z" fill="#1476D1"></path><path d="M11.7433 2.90143L22.6752 4.87276V2.9552L11.7433 0.5V2.90143Z" fill="#1476D1"></path><path d="M1.77917 8.29572L0.453003 8.49285V9.0484L1.77917 8.88711V8.29572Z" fill="#1476D1"></path><path d="M11.3849 2.90143V0.5L0.453003 2.9552V4.87276L11.3849 2.90143Z" fill="#1476D1"></path><path d="M11.3849 2.82977L0.453003 4.8655V6.05558L11.3849 4.33515V2.82977Z" fill="#1476D1"></path><path d="M9.64656 7.8835L11.3849 7.66844V6.80823L9.64656 7.07704V7.8835Z" fill="#1476D1"></path><path d="M17.1197 8.3853L19.324 8.63619V7.97311L17.1197 7.66846V8.3853Z" fill="#1476D1"></path><path d="M3.80425 8.63618L7.4064 8.17023V7.41754L3.80425 7.9731V8.63618Z" fill="#1476D1"></path><path d="M9.4315 6.73656L11.3849 6.4319V5.78674L0.453003 7.45341V8.11649L1.92254 7.90144C1.9763 7.88352 2.03006 7.90144 2.06591 7.93728C2.10175 7.97312 2.13759 8.02689 2.13759 8.08065V9.06631C2.13759 9.15592 2.06591 9.24552 1.9763 9.24552L0.453003 9.42474V18.4032L11.3849 20.5V8.02689L9.48526 8.27778H9.46734C9.41358 8.27778 9.37773 8.25986 9.34189 8.22402C9.30605 8.18818 9.27021 8.13441 9.27021 8.08065V6.91578C9.27021 6.82617 9.34189 6.75448 9.4315 6.73656ZM7.78275 8.33155C7.78275 8.42115 7.71107 8.51076 7.62146 8.51076L3.64297 9.01255H3.62505C3.57128 9.01255 3.53544 8.99463 3.4996 8.95879C3.46376 8.92294 3.42791 8.86918 3.42791 8.81542V7.81183C3.42791 7.72223 3.4996 7.65054 3.5892 7.63262L7.5677 7.0233C7.62146 7.0233 7.67523 7.0233 7.71107 7.05914C7.74691 7.09499 7.78275 7.14875 7.78275 7.20251V8.33155Z" fill="#1476D1"></path><path fill-rule="evenodd" clip-rule="evenodd" d="M21.1878 7.90144C21.134 7.88352 21.0802 7.90144 21.0444 7.93728C21.0086 7.97312 20.9906 8.02689 20.9906 8.06273V9.04839C20.9906 9.138 21.0623 9.20968 21.1519 9.2276L22.6752 9.42474V18.4032L17.1197 19.4978V8.72145L19.4853 9.03047H19.5032C19.5569 9.03047 19.5928 9.01255 19.6286 8.97671C19.6824 8.94086 19.7003 8.8871 19.7003 8.83334V7.81183C19.7003 7.72223 19.6286 7.65054 19.539 7.63262L17.1197 7.26209V7.26088L15.5428 7.01866C15.5395 7.01804 15.5363 7.01754 15.533 7.01716L13.3562 6.68279V6.68394L11.7254 6.4319V5.78674L22.6573 7.45341V8.11649L21.1878 7.90144ZM13.3562 8.25513L11.7433 8.02689V20.5L13.3562 20.2177V8.25513Z" fill="#1476D1"></path></svg>