<svg class="mb-2" height="32" viewBox="0 0 37 37" fill="none" xmlns="http://www.w3.org/2000/svg"><path d="M28.0647 2.92383C26.447 2.92383 24.8196 3.58477 23.657 4.71012C24.0606 7.95434 25.1564 10.0253 26.7331 11.3392C28.2976 12.643 30.3949 13.2292 32.9031 13.3322C33.8475 12.2023 34.3928 10.7246 34.3928 9.25406C34.3928 7.60404 33.7073 5.94495 32.5405 4.77825C31.3738 3.61148 29.7147 2.92383 28.0647 2.92383ZM22.7011 5.90325C22.0818 6.90478 21.7343 8.08195 21.7343 9.25406C21.7343 10.9041 22.4221 12.5632 23.5888 13.7299C24.7557 14.8966 26.4147 15.5844 28.0648 15.5844C29.3781 15.5844 30.6973 15.1487 31.7693 14.3825C29.551 14.1575 27.5769 13.5064 26.0125 12.2028C24.3758 10.839 23.2314 8.78283 22.7012 5.90332L22.7011 5.90325ZM20.7479 10.6648L16.2148 16.5556C16.4186 17.9337 16.9501 19.0236 17.7683 19.8031C18.5904 20.5865 19.7169 21.077 21.1851 21.1831L26.7617 16.5931C25.2711 16.3241 23.869 15.601 22.7935 14.5254C21.7439 13.4758 21.0316 12.1147 20.7477 10.6647L20.7479 10.6648ZM21.8113 15.0174C21.812 15.0174 21.8127 15.0174 21.8134 15.0174C21.8259 15.017 21.8384 15.017 21.8508 15.0174C21.9595 15.0181 22.0655 15.0503 22.1563 15.1099C22.247 15.1696 22.3186 15.2543 22.3623 15.3537C22.4059 15.4531 22.4199 15.5631 22.4025 15.6703C22.385 15.7775 22.3369 15.8773 22.2639 15.9578L19.8513 18.6845C19.8027 18.741 19.7434 18.7873 19.6768 18.8207C19.6101 18.8541 19.5376 18.874 19.4632 18.8791C19.3888 18.8842 19.3142 18.8745 19.2436 18.8506C19.1731 18.8266 19.108 18.7889 19.0521 18.7396C18.9962 18.6902 18.9507 18.6303 18.9182 18.5633C18.8856 18.4962 18.8668 18.4234 18.8626 18.3489C18.8585 18.2745 18.8691 18.2 18.894 18.1298C18.9189 18.0595 18.9575 17.9949 19.0076 17.9397L21.4202 15.213C21.469 15.1559 21.5288 15.1093 21.596 15.0757C21.6631 15.0421 21.7363 15.0223 21.8113 15.0174ZM15.314 17.7267L7.9597 27.2826C8.20488 28.2197 8.47481 28.7552 8.83861 29.1128C9.19228 29.4608 9.7095 29.7077 10.4954 29.9853L20.0095 22.1498C18.8095 21.896 17.788 21.3761 16.9927 20.6184C16.1949 19.8583 15.6341 18.8727 15.314 17.7267ZM7.4654 29.1437C6.82415 29.5221 6.24407 30.1337 5.83936 30.8598C5.16042 32.0774 5.02936 33.4779 5.68115 34.4084C6.14979 34.7134 6.42407 34.7466 6.65456 34.7139C6.7807 34.6959 6.90895 34.6468 7.05 34.582C6.8264 33.9088 6.60703 33.1104 6.87421 32.2396C7.08726 31.5457 7.60005 30.9006 8.52445 30.306C8.35501 30.19 8.19619 30.0591 8.04984 29.915C7.82364 29.6926 7.63218 29.4382 7.46533 29.1436L7.4654 29.1437Z" fill="url(#paint0_linear_3117_187028)"></path><defs><linearGradient id="paint0_linear_3117_187028" x1="19.8241" y1="2.92383" x2="19.8241" y2="34.724" gradientUnits="userSpaceOnUse"><stop stop-color="#1476D1"></stop><stop offset="1" stop-color="#3776F4"></stop></linearGradient></defs></svg>