<svg width="56" height="56" viewBox="0 0 56 56" fill="none" xmlns="http://www.w3.org/2000/svg"><rect x="4" y="4" width="48" height="48" rx="24" fill="#3776F4" fill-opacity="0.2"></rect><path d="M36.8421 26.3421C36.8421 23.997 35.9105 21.748 34.2523 20.0898C32.5941 18.4316 30.3451 17.5 28 17.5C25.6549 17.5 23.4059 18.4316 21.7477 20.0898C20.0895 21.748 19.1579 23.997 19.1579 26.3421" stroke="#3776F4" stroke-width="1.5" stroke-linecap="round" stroke-linejoin="round"></path><path d="M36.8421 34.0783V34.6309C36.8421 35.2172 36.6092 35.7794 36.1947 36.194C35.7801 36.6085 35.2179 36.8414 34.6316 36.8414H30.7632M16.9474 31.2466V29.1731C16.9475 28.6802 17.1123 28.2014 17.4157 27.8129C17.7191 27.4244 18.1436 27.1484 18.6219 27.0289L20.545 26.547C20.6427 26.5227 20.7447 26.5209 20.8432 26.5419C20.9417 26.5628 21.0342 26.6059 21.1135 26.6679C21.1929 26.7299 21.2571 26.8092 21.3013 26.8997C21.3454 26.9902 21.3684 27.0896 21.3684 27.1903V33.2283C21.3686 33.3292 21.3458 33.4289 21.3016 33.5196C21.2574 33.6104 21.1932 33.6898 21.1136 33.752C21.0341 33.8141 20.9415 33.8573 20.8427 33.8782C20.744 33.8991 20.6418 33.8972 20.5439 33.8727L18.6208 33.3919C18.1427 33.2721 17.7184 32.9961 17.4153 32.6076C17.1121 32.2191 16.9474 31.7405 16.9474 31.2477V31.2466ZM39.0526 31.2466V29.1731C39.0526 28.6802 38.8877 28.2014 38.5843 27.8129C38.2809 27.4244 37.8564 27.1484 37.3782 27.0289L35.455 26.547C35.3573 26.5227 35.2553 26.5209 35.1568 26.5419C35.0583 26.5628 34.9659 26.6059 34.8865 26.6679C34.8071 26.7299 34.7429 26.8092 34.6988 26.8997C34.6546 26.9902 34.6316 27.0896 34.6316 27.1903V33.2283C34.6315 33.3291 34.6543 33.4286 34.6984 33.5193C34.7425 33.6099 34.8067 33.6893 34.8861 33.7514C34.9654 33.8136 35.0579 33.8568 35.1565 33.8778C35.2551 33.8988 35.3572 33.897 35.455 33.8727L37.3782 33.3919C37.8564 33.2724 38.2809 32.9964 38.5843 32.6079C38.8877 32.2194 39.0526 31.7406 39.0526 31.2477V31.2466Z" stroke="#3776F4" stroke-width="1.5"></path><path d="M29.6579 38.4994H26.3421C25.9024 38.4994 25.4807 38.3247 25.1698 38.0138C24.8589 37.7029 24.6842 37.2812 24.6842 36.8415C24.6842 36.4018 24.8589 35.9801 25.1698 35.6692C25.4807 35.3583 25.9024 35.1836 26.3421 35.1836H29.6579C30.0976 35.1836 30.5193 35.3583 30.8302 35.6692C31.1411 35.9801 31.3158 36.4018 31.3158 36.8415C31.3158 37.2812 31.1411 37.7029 30.8302 38.0138C30.5193 38.3247 30.0976 38.4994 29.6579 38.4994Z" stroke="#3776F4" stroke-width="1.5"></path><rect x="4" y="4" width="48" height="48" rx="24" stroke="#3776F4" stroke-opacity="0.1" stroke-width="8"></rect></svg>