<svg class="mb-2" width="32" height="32" viewBox="0 0 33 34" fill="none" xmlns="http://www.w3.org/2000/svg"><path d="M16.4486 12.9389C18.6188 23.3256 13.7189 30.6823 13.7189 30.6823H17.8135C20.3795 22.766 19.1784 17.1564 18.4959 14.3038M21.4441 10.4275C21.6761 10.7142 21.9081 11.0144 22.0856 11.3284C23.1977 13.0864 23.7145 15.1557 23.5597 17.2303C23.4048 19.3048 22.5865 21.2744 21.2257 22.8479C21.8154 21.4184 22.0549 19.8687 21.9243 18.3279C21.7937 16.787 21.2968 15.2997 20.475 13.9899C20.3658 13.8124 20.243 13.6623 20.1338 13.4985C19.349 12.4031 18.345 11.4828 17.1857 10.796C15.2203 11.4233 13.5053 12.6592 12.2884 14.3251C11.0715 15.9909 10.4157 18.0006 10.4159 20.0636C10.4159 21.0736 10.566 22.0426 10.839 22.9435C9.65554 21.2973 9.02043 19.3203 9.02369 17.2929C9.02369 14.0854 10.5797 11.2465 12.9682 9.47212C10.9891 9.32198 8.8872 9.75874 7.05827 10.8916C6.21204 11.4512 5.47501 12.0927 4.84717 12.8161C5.59785 11.0008 6.89448 9.37658 8.66882 8.25738C10.7161 6.97439 13.0364 6.55128 15.2748 6.87885C14.7152 6.11452 14.0328 5.39113 13.2139 4.74964C12.4222 4.17639 11.5624 3.71234 10.6615 3.38477C12.627 3.43936 14.5924 4.0672 16.2712 5.33654C17.1311 5.97803 17.8135 6.75601 18.3594 7.57494C18.4959 7.57494 18.6188 7.56129 18.7553 7.56129C23.1229 7.56129 26.8217 10.4412 28.0501 14.413C27.2821 13.3302 26.2992 12.4174 25.1625 11.7316C24.0259 11.0459 22.76 10.602 21.4441 10.4275Z" fill="url(#paint0_linear_3109_185427)"></path><defs><linearGradient id="paint0_linear_3109_185427" x1="16.4486" y1="3.38477" x2="16.4486" y2="30.6823" gradientUnits="userSpaceOnUse"><stop stop-color="#1476D1"></stop><stop offset="1" stop-color="#3776F4"></stop></linearGradient></defs></svg>