<svg width="25" height="18" viewBox="0 0 25 18" fill="none" xmlns="http://www.w3.org/2000/svg"><path d="M20.92 3.39764H17.297V1.59766C17.297 1.39874 17.218 1.20797 17.0773 1.06732C16.9367 0.926669 16.7459 0.847656 16.547 0.847656C16.3481 0.847656 16.1573 0.926669 16.0167 1.06732C15.876 1.20797 15.797 1.39874 15.797 1.59766V3.39764H8.65802V1.59766C8.65802 1.39874 8.57901 1.20797 8.43835 1.06732C8.2977 0.926669 8.10693 0.847656 7.90802 0.847656C7.70911 0.847656 7.51834 0.926669 7.37769 1.06732C7.23703 1.20797 7.15802 1.39874 7.15802 1.59766V3.39764H3.55801C2.61453 3.3987 1.70999 3.77404 1.04294 4.44128C0.375885 5.10853 0.000794034 6.01318 0 6.95667V13.5947C0.00105872 14.538 0.376279 15.4424 1.0433 16.1094C1.71033 16.7764 2.6147 17.1516 3.55801 17.1526H20.921C21.8642 17.1516 22.7685 16.7764 23.4354 16.1093C24.1022 15.4423 24.4772 14.5379 24.478 13.5947V6.95667C24.4775 6.0131 24.1025 5.10828 23.4354 4.44098C22.7683 3.77368 21.8636 3.39844 20.92 3.39764ZM22.977 13.5977C22.9765 14.1431 22.7596 14.6661 22.374 15.0519C21.9884 15.4377 21.4655 15.6548 20.92 15.6556H3.55701C3.01144 15.6548 2.48844 15.4378 2.10266 15.052C1.71688 14.6662 1.49982 14.1432 1.49902 13.5977V6.95966C1.49955 6.41391 1.71649 5.89063 2.10229 5.50464C2.4881 5.11864 3.01126 4.90143 3.55701 4.90063H20.92C21.4657 4.90143 21.9887 5.11868 22.3744 5.5047C22.76 5.89072 22.9768 6.414 22.977 6.95966V13.5977Z" fill="#667085"></path><path d="M11.344 7.68945H3.89801C3.6991 7.68945 3.50833 7.76847 3.36768 7.90912C3.22702 8.04977 3.14801 8.24054 3.14801 8.43945C3.14801 8.63837 3.22702 8.82914 3.36768 8.96979C3.50833 9.11044 3.6991 9.18945 3.89801 9.18945H11.344C11.5429 9.18945 11.7337 9.11044 11.8743 8.96979C12.015 8.82914 12.094 8.63837 12.094 8.43945C12.094 8.24054 12.015 8.04977 11.8743 7.90912C11.7337 7.76847 11.5429 7.68945 11.344 7.68945Z" fill="#667085"></path><path d="M18.2378 13.9014L21.2227 10.9164C21.2944 10.8472 21.3515 10.7645 21.3909 10.673C21.4302 10.5815 21.451 10.4831 21.4519 10.3835C21.4528 10.284 21.4339 10.1852 21.3962 10.093C21.3585 10.0008 21.3029 9.91704 21.2325 9.84659C21.1621 9.77614 21.0785 9.7204 20.9863 9.68265C20.8941 9.64489 20.7954 9.62589 20.6958 9.62671C20.5962 9.62753 20.4978 9.64818 20.4063 9.68744C20.3148 9.7267 20.232 9.78378 20.1627 9.85538L18.2857 11.7364L18.2857 7.19238C18.2857 6.99347 18.2067 6.8027 18.0661 6.66205C17.9254 6.5214 17.7346 6.44238 17.5357 6.44238C17.3368 6.44238 17.1461 6.5214 17.0054 6.66205C16.8647 6.8027 16.7857 6.99347 16.7857 7.19238L16.7857 11.4994L15.1418 9.85538C15.0725 9.78378 14.9897 9.7267 14.8982 9.68744C14.8067 9.64818 14.7083 9.62753 14.6087 9.62671C14.5091 9.62589 14.4104 9.64489 14.3182 9.68265C14.2261 9.7204 14.1423 9.77614 14.0719 9.84659C14.0015 9.91704 13.9459 10.0008 13.9082 10.093C13.8706 10.1852 13.8517 10.284 13.8526 10.3835C13.8535 10.4831 13.8742 10.5815 13.9135 10.673C13.9529 10.7645 14.0101 10.8472 14.0818 10.9164L17.0667 13.9014C17.2327 14.0366 17.4402 14.1104 17.6543 14.1104C17.8683 14.1104 18.0758 14.0366 18.2417 13.9014L18.2378 13.9014Z" fill="#667085"></path><path d="M8.48001 11.3608H3.89801C3.6991 11.3608 3.50833 11.4399 3.36768 11.5805C3.22702 11.7212 3.14801 11.9119 3.14801 12.1108C3.14801 12.3098 3.22702 12.5005 3.36768 12.6412C3.50833 12.7818 3.6991 12.8608 3.89801 12.8608H8.48001C8.67892 12.8608 8.86969 12.7818 9.01035 12.6412C9.151 12.5005 9.23001 12.3098 9.23001 12.1108C9.23001 11.9119 9.151 11.7212 9.01035 11.5805C8.86969 11.4399 8.67892 11.3608 8.48001 11.3608Z" fill="#667085"></path></svg>