<svg width="135" height="40" viewBox="0 0 135 40" fill="none" xmlns="http://www.w3.org/2000/svg">
<path d="M87.5259 19.2004V21.4914H86.0899V22.9938H87.5259V28.0988C87.5259 29.842 88.3145 30.5392 90.2984 30.5392C90.647 30.5392 90.9791 30.4977 91.2696 30.4479V28.9621C91.0206 28.987 90.8628 29.0036 90.5889 29.0036C89.7007 29.0036 89.3106 28.5886 89.3106 27.6423V22.9938H91.2696V21.4914H89.3106V19.2004H87.5259Z" fill="white"/>
<path d="M96.3234 30.6638C98.9631 30.6638 100.582 28.8957 100.582 25.9655C100.582 23.0519 98.9548 21.2756 96.3234 21.2756C93.6838 21.2756 92.0568 23.0519 92.0568 25.9655C92.0568 28.8957 93.6755 30.6638 96.3234 30.6638ZM96.3234 29.0783C94.7712 29.0783 93.8996 27.9411 93.8996 25.9655C93.8996 24.0065 94.7712 22.861 96.3234 22.861C97.8674 22.861 98.7473 24.0065 98.7473 25.9655C98.7473 27.9328 97.8674 29.0783 96.3234 29.0783Z" fill="white"/>
<path d="M101.967 30.4894H103.751V25.152C103.751 23.882 104.706 23.027 106.059 23.027C106.374 23.027 106.906 23.0851 107.055 23.1349V21.3752C106.864 21.3254 106.524 21.3005 106.258 21.3005C105.079 21.3005 104.075 21.9479 103.818 22.8361H103.685V21.4499H101.967V30.4894Z" fill="white"/>
<path d="M111.486 22.7946C112.806 22.7946 113.669 23.716 113.711 25.1354H109.145C109.245 23.7243 110.166 22.7946 111.486 22.7946ZM113.703 28.049C113.371 28.7546 112.632 29.1447 111.553 29.1447C110.125 29.1447 109.204 28.1403 109.145 26.5549V26.4553H115.529V25.8327C115.529 22.9938 114.01 21.2756 111.495 21.2756C108.946 21.2756 107.328 23.11 107.328 25.9987C107.328 28.8874 108.913 30.6638 111.503 30.6638C113.57 30.6638 115.014 29.6677 115.421 28.049H113.703Z" fill="white"/>
<path d="M75.8223 27.1513C75.96 29.371 77.8098 30.7906 80.5629 30.7906C83.5053 30.7906 85.3464 29.3021 85.3464 26.9276C85.3464 25.0606 84.2968 24.0282 81.7502 23.4346L80.3822 23.099C78.7647 22.7205 78.1109 22.2129 78.1109 21.3267C78.1109 20.2082 79.1261 19.4769 80.6489 19.4769C82.0943 19.4769 83.0923 20.191 83.273 21.3353H85.1486C85.0367 19.2446 83.1956 17.7734 80.6747 17.7734C77.9646 17.7734 76.1579 19.2446 76.1579 21.4557C76.1579 23.2797 77.1817 24.3637 79.4272 24.8885L81.0275 25.2757C82.6707 25.6629 83.3934 26.2307 83.3934 27.1771C83.3934 28.2783 82.2578 29.0785 80.7091 29.0785C79.0487 29.0785 77.8958 28.33 77.7323 27.1513H75.8223Z" fill="white"/>
<path d="M57.335 21.3005C56.1065 21.3005 55.044 21.9147 54.4961 22.944H54.3633V21.4499H52.6451V33.4943H54.4297V29.1198H54.5708C55.044 30.0744 56.065 30.6388 57.3516 30.6388C59.6343 30.6388 61.087 28.8376 61.087 25.9655C61.087 23.0934 59.6343 21.3005 57.335 21.3005ZM56.8287 29.0368C55.3345 29.0368 54.3965 27.8581 54.3965 25.9738C54.3965 24.0812 55.3345 22.9025 56.837 22.9025C58.3477 22.9025 59.2525 24.0563 59.2525 25.9655C59.2525 27.883 58.3477 29.0368 56.8287 29.0368Z" fill="white"/>
<path d="M67.3318 21.3005C66.1033 21.3005 65.0408 21.9147 64.4929 22.944H64.3601V21.4499H62.6419V33.4943H64.4265V29.1198H64.5676C65.0408 30.0744 66.0618 30.6388 67.3484 30.6388C69.6311 30.6388 71.0838 28.8376 71.0838 25.9655C71.0838 23.0934 69.6311 21.3005 67.3318 21.3005ZM66.8255 29.0368C65.3313 29.0368 64.3933 27.8581 64.3933 25.9738C64.3933 24.0812 65.3313 22.9025 66.8338 22.9025C68.3445 22.9025 69.2493 24.0563 69.2493 25.9655C69.2493 27.883 68.3445 29.0368 66.8255 29.0368Z" fill="white"/>
<path d="M49.4431 30.4894H51.4907L47.0083 18.0746H44.9348L40.4524 30.4894H42.4312L43.5755 27.1943H48.3074L49.4431 30.4894ZM45.8726 20.3287H46.0189L47.817 25.5768H44.0659L45.8726 20.3287Z" fill="white"/>
<path d="M41.6511 8.71265V14.7017H43.8135C45.5981 14.7017 46.6316 13.6018 46.6316 11.6885C46.6316 9.8042 45.5898 8.71265 43.8135 8.71265H41.6511ZM42.5808 9.55933H43.7097C44.9507 9.55933 45.6853 10.3479 45.6853 11.7009C45.6853 13.0747 44.9631 13.855 43.7097 13.855H42.5808V9.55933Z" fill="white"/>
<path d="M49.7967 14.7888C51.1165 14.7888 51.9258 13.9048 51.9258 12.4397C51.9258 10.9829 51.1124 10.0947 49.7967 10.0947C48.4769 10.0947 47.6634 10.9829 47.6634 12.4397C47.6634 13.9048 48.4727 14.7888 49.7967 14.7888ZM49.7967 13.9961C49.0206 13.9961 48.5848 13.4275 48.5848 12.4397C48.5848 11.4602 49.0206 10.8875 49.7967 10.8875C50.5687 10.8875 51.0086 11.4602 51.0086 12.4397C51.0086 13.4233 50.5687 13.9961 49.7967 13.9961Z" fill="white"/>
<path d="M58.818 10.1819H57.9256L57.1205 13.6309H57.0499L56.1202 10.1819H55.2652L54.3355 13.6309H54.2691L53.4598 10.1819H52.555L53.8001 14.7017H54.7174L55.6471 11.373H55.7176L56.6515 14.7017H57.577L58.818 10.1819Z" fill="white"/>
<path d="M59.8456 14.7017H60.7379V12.0579C60.7379 11.3523 61.1571 10.9124 61.817 10.9124C62.477 10.9124 62.7924 11.2734 62.7924 11.9998V14.7017H63.6847V11.7756C63.6847 10.7007 63.1286 10.0947 62.12 10.0947C61.4394 10.0947 60.9911 10.3977 60.7711 10.8999H60.7047V10.1819H59.8456V14.7017Z" fill="white"/>
<path d="M65.09 14.7017H65.9824V8.41797H65.09V14.7017Z" fill="white"/>
<path d="M69.3384 14.7888C70.6582 14.7888 71.4675 13.9048 71.4675 12.4397C71.4675 10.9829 70.6541 10.0947 69.3384 10.0947C68.0186 10.0947 67.2051 10.9829 67.2051 12.4397C67.2051 13.9048 68.0144 14.7888 69.3384 14.7888ZM69.3384 13.9961C68.5623 13.9961 68.1265 13.4275 68.1265 12.4397C68.1265 11.4602 68.5623 10.8875 69.3384 10.8875C70.1104 10.8875 70.5503 11.4602 70.5503 12.4397C70.5503 13.4233 70.1104 13.9961 69.3384 13.9961Z" fill="white"/>
<path d="M74.1263 14.0251C73.6407 14.0251 73.2879 13.7886 73.2879 13.3818C73.2879 12.9834 73.5701 12.7717 74.1927 12.7302L75.2967 12.6597V13.0374C75.2967 13.5977 74.7986 14.0251 74.1263 14.0251ZM73.898 14.7764C74.4915 14.7764 74.9854 14.519 75.2552 14.0667H75.3257V14.7017H76.1849V11.6138C76.1849 10.6592 75.5457 10.0947 74.4126 10.0947C73.3875 10.0947 72.657 10.5928 72.5657 11.3689H73.429C73.5286 11.0493 73.8731 10.8667 74.3711 10.8667C74.9812 10.8667 75.2967 11.1365 75.2967 11.6138V12.0039L74.0723 12.0745C72.9974 12.1409 72.3914 12.6099 72.3914 13.4233C72.3914 14.2493 73.0264 14.7764 73.898 14.7764Z" fill="white"/>
<path d="M79.213 14.7764C79.8355 14.7764 80.3626 14.4817 80.6324 13.9878H80.703V14.7017H81.558V8.41797H80.6656V10.8999H80.5992C80.3543 10.4019 79.8314 10.1072 79.213 10.1072C78.0716 10.1072 77.337 11.012 77.337 12.4397C77.337 13.8716 78.0633 14.7764 79.213 14.7764ZM79.4662 10.9082C80.2132 10.9082 80.6822 11.5017 80.6822 12.4438C80.6822 13.3901 80.2174 13.9753 79.4662 13.9753C78.7108 13.9753 78.2584 13.3984 78.2584 12.4397C78.2584 11.4893 78.7149 10.9082 79.4662 10.9082Z" fill="white"/>
<path d="M87.3444 14.7888C88.6643 14.7888 89.4736 13.9048 89.4736 12.4397C89.4736 10.9829 88.6601 10.0947 87.3444 10.0947C86.0246 10.0947 85.2111 10.9829 85.2111 12.4397C85.2111 13.9048 86.0205 14.7888 87.3444 14.7888ZM87.3444 13.9961C86.5683 13.9961 86.1325 13.4275 86.1325 12.4397C86.1325 11.4602 86.5683 10.8875 87.3444 10.8875C88.1164 10.8875 88.5563 11.4602 88.5563 12.4397C88.5563 13.4233 88.1164 13.9961 87.3444 13.9961Z" fill="white"/>
<path d="M90.6548 14.7017H91.5471V12.0579C91.5471 11.3523 91.9663 10.9124 92.6262 10.9124C93.2861 10.9124 93.6016 11.2734 93.6016 11.9998V14.7017H94.4939V11.7756C94.4939 10.7007 93.9377 10.0947 92.9292 10.0947C92.2485 10.0947 91.8003 10.3977 91.5803 10.8999H91.5139V10.1819H90.6548V14.7017Z" fill="white"/>
<path d="M98.6036 9.05713V10.2026H97.8856V10.9539H98.6036V13.5063C98.6036 14.3779 98.9979 14.7266 99.9898 14.7266C100.164 14.7266 100.33 14.7058 100.475 14.6809V13.938C100.351 13.9504 100.272 13.9587 100.135 13.9587C99.691 13.9587 99.4959 13.7512 99.4959 13.2781V10.9539H100.475V10.2026H99.4959V9.05713H98.6036Z" fill="white"/>
<path d="M101.673 14.7017H102.566V12.062C102.566 11.3772 102.972 10.9165 103.703 10.9165C104.334 10.9165 104.67 11.2817 104.67 12.0039V14.7017H105.562V11.7839C105.562 10.709 104.969 10.0989 104.006 10.0989C103.325 10.0989 102.848 10.4019 102.628 10.9082H102.557V8.41797H101.673V14.7017Z" fill="white"/>
<path d="M108.781 10.8542C109.441 10.8542 109.873 11.3149 109.894 12.0247H107.611C107.661 11.3191 108.121 10.8542 108.781 10.8542ZM109.889 13.4814C109.723 13.8342 109.354 14.0293 108.814 14.0293C108.101 14.0293 107.64 13.5271 107.611 12.7344V12.6846H110.802V12.3733C110.802 10.9539 110.043 10.0947 108.785 10.0947C107.511 10.0947 106.702 11.012 106.702 12.4563C106.702 13.9006 107.495 14.7888 108.789 14.7888C109.823 14.7888 110.545 14.2908 110.748 13.4814H109.889Z" fill="white"/>
<path d="M26.8103 20.8967C26.835 18.9838 27.8623 17.1737 29.492 16.1718C28.4639 14.7035 26.7418 13.7725 24.9502 13.7165C23.0393 13.5159 21.1868 14.8599 20.2131 14.8599C19.2205 14.8599 17.7212 13.7364 16.1067 13.7696C14.0024 13.8376 12.0406 15.034 11.0168 16.8738C8.81597 20.6841 10.4576 26.2841 12.5658 29.3641C13.6205 30.8723 14.8532 32.5569 16.4662 32.4972C18.0446 32.4317 18.6342 31.4907 20.5394 31.4907C22.427 31.4907 22.9801 32.4972 24.6258 32.4592C26.3195 32.4317 27.3867 30.9443 28.4044 29.4219C29.1623 28.3472 29.7454 27.1595 30.1323 25.9027C28.1419 25.0609 26.8127 23.0578 26.8103 20.8967Z" fill="white"/>
<path d="M23.7018 11.6909C24.6253 10.5823 25.0803 9.15739 24.9701 7.71875C23.5592 7.86693 22.256 8.54124 21.32 9.60731C20.4048 10.6489 19.9285 12.0488 20.0185 13.4324C21.4299 13.447 22.8174 12.7909 23.7018 11.6909Z" fill="white"/>
<rect x="0.5" y="0.5" width="134" height="39" rx="6.5" stroke="white"/>
</svg>
