<svg class="img-fluid" width="66" height="66" viewBox="0 0 66 66" fill="none" xmlns="http://www.w3.org/2000/svg"><rect x="5" y="5" width="56" height="56" rx="28" fill="#3776F4" fill-opacity="0.2"></rect><path d="M37.0833 27.7497L41.1667 23.6663M43.5 21.333L41.1667 23.6663L43.5 21.333ZM32.2883 32.5447C32.8907 33.1391 33.3696 33.8467 33.6974 34.6269C34.0252 35.4071 34.1954 36.2445 34.1982 37.0907C34.201 37.937 34.0365 38.7755 33.7139 39.5579C33.3914 40.3402 32.9173 41.0511 32.3189 41.6495C31.7205 42.2479 31.0096 42.722 30.2272 43.0446C29.4448 43.3671 28.6063 43.5317 27.7601 43.5289C26.9138 43.526 26.0765 43.3558 25.2963 43.0281C24.5161 42.7003 23.8084 42.2214 23.214 41.619C22.0452 40.4088 21.3984 38.7879 21.413 37.1055C21.4276 35.4231 22.1025 33.8137 23.2922 32.624C24.4819 31.4343 26.0913 30.7595 27.7737 30.7448C29.4561 30.7302 31.077 31.377 32.2872 32.5458L32.2883 32.5447ZM32.2883 32.5447L37.0833 27.7497L32.2883 32.5447ZM37.0833 27.7497L40.5833 31.2497L44.6667 27.1663L41.1667 23.6663L37.0833 27.7497Z" stroke="#3776F4" stroke-width="2.33333" stroke-linecap="round" stroke-linejoin="round"></path><rect x="5" y="5" width="56" height="56" rx="28" stroke="#3776F4" stroke-opacity="0.1" stroke-width="10"></rect></svg>