<svg width="56" height="56" viewBox="0 0 56 56" fill="none" xmlns="http://www.w3.org/2000/svg"><rect x="4" y="4" width="48" height="48" rx="24" fill="#3776F4" fill-opacity="0.2"></rect><path d="M37.4683 22.0726V22.0727V22.9379H18.7116L18.7116 22.073C18.7116 22.073 18.7116 22.0729 18.7116 22.0729C18.7116 22.0728 18.7116 22.0728 18.7116 22.0727C18.7121 21.1418 18.9965 20.2735 19.4696 19.6549C19.94 19.0401 20.5346 18.7455 21.1037 18.7457H21.1039H35.0786L35.0788 18.7457C35.3643 18.7456 35.6536 18.8187 35.9323 18.9697C36.2122 19.1213 36.4791 19.3505 36.7118 19.6549C36.9445 19.9594 37.1354 20.3294 37.2674 20.7467L37.8871 20.5506L37.2674 20.7467C37.3994 21.1638 37.4684 21.6147 37.4683 22.0726Z" stroke="#3776F4" stroke-width="1.3"></path><path d="M18.7366 22.9689V34.6637V22.9689ZM18.7366 22.9689H37.4433V34.6639V34.6641C37.4434 34.9997 37.3805 35.3313 37.2591 35.6397L37.8871 35.8871L37.2591 35.6397C37.1376 35.9481 36.9604 36.2261 36.7391 36.4588C36.5179 36.6914 36.2571 36.874 35.9725 36.9979C35.6881 37.1217 35.3845 37.1849 35.0788 37.1848H35.0786H21.1039H21.1037C20.4875 37.185 19.8891 36.9281 19.4423 36.4588C18.9945 35.9883 18.7371 35.3433 18.7366 34.6639V22.9689Z" stroke="#3776F4" stroke-width="1.35"></path><path d="M32.0813 27.1113L26.5932 32.5995L24.0986 30.1049" stroke="#3776F4" stroke-width="1.35" stroke-linecap="round" stroke-linejoin="round"></path><rect x="4" y="4" width="48" height="48" rx="24" stroke="#3776F4" stroke-opacity="0.1" stroke-width="8"></rect></svg>