<svg width="48" height="49" viewBox="0 0 48 49" fill="none" xmlns="http://www.w3.org/2000/svg"><rect x="4" y="4.5" width="40" height="40" rx="20" fill="#969696"></rect><path fill-rule="evenodd" clip-rule="evenodd" d="M14.0116 29.5685V18.1348H32.8437V21.6366C32.4552 21.3376 31.9141 21.3113 31.4985 21.5721V20.8251C31.1418 20.8251 30.7996 20.6833 30.5473 20.4311C30.2951 20.1788 30.1534 19.8367 30.1534 19.4799H16.7019C16.7019 19.8367 16.5602 20.1788 16.3079 20.4311C16.0556 20.6833 15.7135 20.8251 15.3567 20.8251V26.8782C15.7135 26.8782 16.0556 27.0199 16.3079 27.2722C16.5602 27.5245 16.7019 27.8666 16.7019 28.2234H27.8716C27.7871 28.7224 27.9787 29.2464 28.4008 29.5685H14.0116ZM20.7373 23.8516C20.7373 22.181 21.9406 20.8251 23.4276 20.8251C24.9147 20.8251 26.1179 22.181 26.1179 23.8516C26.1179 25.5223 24.9147 26.8782 23.4276 26.8782C21.9406 26.8782 20.7373 25.5223 20.7373 23.8516ZM24.7728 23.8516C24.7728 22.9242 24.1688 22.1702 23.4276 22.1702C22.6865 22.1702 22.0825 22.9242 22.0825 23.8516C22.0825 24.7791 22.6865 25.5331 23.4276 25.5331C24.1688 25.5331 24.7728 24.7791 24.7728 23.8516ZM17.9971 22.9197C18.1196 22.869 18.2508 22.8428 18.3833 22.8428C18.651 22.8427 18.9077 22.9489 19.097 23.1381C19.2864 23.3273 19.3928 23.584 19.3929 23.8516C19.3929 24.1193 19.2867 24.376 19.0975 24.5653C18.9083 24.7547 18.6517 24.8611 18.384 24.8612C18.2515 24.8612 18.1202 24.8352 17.9978 24.7845C17.8753 24.7338 17.764 24.6595 17.6703 24.5658C17.5765 24.4721 17.5022 24.3609 17.4514 24.2385C17.4007 24.1161 17.3745 23.9848 17.3745 23.8523C17.3744 23.7198 17.4005 23.5885 17.4512 23.4661C17.5018 23.3436 17.5761 23.2323 17.6698 23.1386C17.7635 23.0449 17.8747 22.9705 17.9971 22.9197ZM28.0857 22.9197C28.2082 22.869 28.3394 22.8428 28.4719 22.8428C28.7396 22.8427 28.9963 22.9489 29.1856 23.1381C29.375 23.3273 29.4814 23.584 29.4815 23.8516C29.4815 24.1193 29.3753 24.376 29.1861 24.5653C28.9969 24.7547 28.7403 24.8611 28.4726 24.8612C28.3401 24.8612 28.2088 24.8352 28.0864 24.7845C27.9639 24.7338 27.8526 24.6595 27.7589 24.5658C27.6651 24.4721 27.5908 24.3609 27.54 24.2385C27.4893 24.1161 27.4631 23.9848 27.4631 23.8523C27.463 23.7198 27.4891 23.5885 27.5398 23.4661C27.5904 23.3436 27.6647 23.2323 27.7584 23.1386C27.8521 23.0449 27.9633 22.9705 28.0857 22.9197Z" fill="white"></path><path d="M28.9427 28.0392C29.0647 27.9173 29.212 27.8587 29.3848 27.8636C29.5575 27.8689 29.7048 27.9325 29.8268 28.0544L31.5491 29.7768L31.5491 22.9788C31.5491 22.8061 31.6077 22.6612 31.7247 22.5441C31.8414 22.4275 31.9861 22.3691 32.1588 22.3691C32.3316 22.3691 32.4765 22.4275 32.5935 22.5441C32.7102 22.6612 32.7685 22.8061 32.7685 22.9788L32.7685 29.7768L34.5061 28.0392C34.628 27.9173 34.7729 27.8563 34.9408 27.8563C35.1083 27.8563 35.253 27.9173 35.3749 28.0392C35.4968 28.1611 35.5578 28.306 35.5578 28.4739C35.5578 28.6414 35.4968 28.7861 35.3749 28.908L32.5856 31.6973C32.5246 31.7583 32.4586 31.8016 32.3874 31.8272C32.3163 31.8524 32.2401 31.865 32.1588 31.865C32.0775 31.865 32.0013 31.8524 31.9302 31.8272C31.8591 31.8016 31.793 31.7583 31.732 31.6973L28.9275 28.8928C28.8157 28.781 28.7598 28.6414 28.7598 28.4739C28.7598 28.306 28.8208 28.1611 28.9427 28.0392Z" fill="white"></path><rect x="4" y="4.5" width="40" height="40" rx="20" stroke="#676767" stroke-width="8"></rect></svg>